<svg width="402" height="1080" viewBox="0 0 402 1080" fill="none" xmlns="http://www.w3.org/2000/svg">
<g clip-path="url(#clip0_18_2)">
<path d="M79.694 221.47C81.0527 221.47 82.1541 219.94 82.1541 218.052C82.1541 216.164 81.0527 214.634 79.694 214.634C78.3353 214.634 77.2339 216.164 77.2339 218.052C77.2339 219.94 78.3353 221.47 79.694 221.47Z" fill="#A7C7CE" fill-opacity="0.6"/>
<path d="M105.438 185.699C106.797 185.699 107.898 184.168 107.898 182.28C107.898 180.393 106.797 178.862 105.438 178.862C104.079 178.862 102.978 180.393 102.978 182.28C102.978 184.168 104.079 185.699 105.438 185.699Z" fill="#A7C7CE" fill-opacity="0.6"/>
<path d="M105.438 221.47C106.797 221.47 107.898 219.94 107.898 218.052C107.898 216.164 106.797 214.634 105.438 214.634C104.079 214.634 102.978 216.164 102.978 218.052C102.978 219.94 104.079 221.47 105.438 221.47Z" fill="#A7C7CE" fill-opacity="0.6"/>
<path d="M53.9483 257.242C55.307 257.242 56.4084 255.711 56.4084 253.823C56.4084 251.935 55.307 250.405 53.9483 250.405C52.5896 250.405 51.4882 251.935 51.4882 253.823C51.4882 255.711 52.5896 257.242 53.9483 257.242Z" fill="#A7C7CE" fill-opacity="0.6"/>
<path d="M79.694 257.242C81.0527 257.242 82.1541 255.711 82.1541 253.823C82.1541 251.935 81.0527 250.405 79.694 250.405C78.3353 250.405 77.2339 251.935 77.2339 253.823C77.2339 255.711 78.3353 257.242 79.694 257.242Z" fill="#A7C7CE" fill-opacity="0.6"/>
<path d="M105.438 257.242C106.797 257.242 107.898 255.711 107.898 253.823C107.898 251.935 106.797 250.405 105.438 250.405C104.079 250.405 102.978 251.935 102.978 253.823C102.978 255.711 104.079 257.242 105.438 257.242Z" fill="#A7C7CE" fill-opacity="0.6"/>
<path d="M156.928 114.153C158.287 114.153 159.388 112.623 159.388 110.735C159.388 108.847 158.287 107.317 156.928 107.317C155.569 107.317 154.468 108.847 154.468 110.735C154.468 112.623 155.569 114.153 156.928 114.153Z" fill="#A7C7CE" fill-opacity="0.6"/>
<path d="M182.672 114.153C184.031 114.153 185.132 112.623 185.132 110.735C185.132 108.847 184.031 107.317 182.672 107.317C181.313 107.317 180.212 108.847 180.212 110.735C180.212 112.623 181.313 114.153 182.672 114.153Z" fill="#A7C7CE" fill-opacity="0.6"/>
<path d="M131.182 149.925C132.541 149.925 133.642 148.394 133.642 146.507C133.642 144.619 132.541 143.088 131.182 143.088C129.823 143.088 128.722 144.619 128.722 146.507C128.722 148.394 129.823 149.925 131.182 149.925Z" fill="#A7C7CE" fill-opacity="0.6"/>
<path d="M156.928 149.925C158.287 149.925 159.388 148.394 159.388 146.507C159.388 144.619 158.287 143.088 156.928 143.088C155.569 143.088 154.468 144.619 154.468 146.507C154.468 148.394 155.569 149.925 156.928 149.925Z" fill="#A7C7CE" fill-opacity="0.6"/>
<path d="M182.672 149.925C184.031 149.925 185.132 148.394 185.132 146.507C185.132 144.619 184.031 143.088 182.672 143.088C181.313 143.088 180.212 144.619 180.212 146.507C180.212 148.394 181.313 149.925 182.672 149.925Z" fill="#A7C7CE" fill-opacity="0.6"/>
<path d="M131.182 185.699C132.541 185.699 133.642 184.168 133.642 182.28C133.642 180.393 132.541 178.862 131.182 178.862C129.823 178.862 128.722 180.393 128.722 182.28C128.722 184.168 129.823 185.699 131.182 185.699Z" fill="#A7C7CE" fill-opacity="0.6"/>
<path d="M156.928 185.699C158.287 185.699 159.388 184.168 159.388 182.28C159.388 180.393 158.287 178.862 156.928 178.862C155.569 178.862 154.468 180.393 154.468 182.28C154.468 184.168 155.569 185.699 156.928 185.699Z" fill="#A7C7CE" fill-opacity="0.6"/>
<path d="M182.672 185.699C184.031 185.699 185.132 184.168 185.132 182.28C185.132 180.393 184.031 178.862 182.672 178.862C181.313 178.862 180.212 180.393 180.212 182.28C180.212 184.168 181.313 185.699 182.672 185.699Z" fill="#A7C7CE" fill-opacity="0.6"/>
<path d="M131.182 221.47C132.541 221.47 133.642 219.94 133.642 218.052C133.642 216.164 132.541 214.634 131.182 214.634C129.823 214.634 128.722 216.164 128.722 218.052C128.722 219.94 129.823 221.47 131.182 221.47Z" fill="#A7C7CE" fill-opacity="0.6"/>
<path d="M156.928 221.47C158.287 221.47 159.388 219.94 159.388 218.052C159.388 216.164 158.287 214.634 156.928 214.634C155.569 214.634 154.468 216.164 154.468 218.052C154.468 219.94 155.569 221.47 156.928 221.47Z" fill="#A7C7CE" fill-opacity="0.6"/>
<path d="M182.672 221.47C184.031 221.47 185.132 219.94 185.132 218.052C185.132 216.164 184.031 214.634 182.672 214.634C181.313 214.634 180.212 216.164 180.212 218.052C180.212 219.94 181.313 221.47 182.672 221.47Z" fill="#A7C7CE" fill-opacity="0.6"/>
<path d="M208.416 114.153C209.775 114.153 210.876 112.623 210.876 110.735C210.876 108.847 209.775 107.317 208.416 107.317C207.057 107.317 205.956 108.847 205.956 110.735C205.956 112.623 207.057 114.153 208.416 114.153Z" fill="#A7C7CE" fill-opacity="0.6"/>
<path d="M208.416 149.925C209.775 149.925 210.876 148.394 210.876 146.507C210.876 144.619 209.775 143.088 208.416 143.088C207.057 143.088 205.956 144.619 205.956 146.507C205.956 148.394 207.057 149.925 208.416 149.925Z" fill="#A7C7CE" fill-opacity="0.6"/>
<path d="M208.416 185.699C209.775 185.699 210.876 184.168 210.876 182.28C210.876 180.393 209.775 178.862 208.416 178.862C207.057 178.862 205.956 180.393 205.956 182.28C205.956 184.168 207.057 185.699 208.416 185.699Z" fill="#A7C7CE" fill-opacity="0.6"/>
<path d="M208.416 221.47C209.775 221.47 210.876 219.94 210.876 218.052C210.876 216.164 209.775 214.634 208.416 214.634C207.057 214.634 205.956 216.164 205.956 218.052C205.956 219.94 207.057 221.47 208.416 221.47Z" fill="#A7C7CE" fill-opacity="0.6"/>
<path d="M131.182 257.242C132.541 257.242 133.642 255.711 133.642 253.823C133.642 251.935 132.541 250.405 131.182 250.405C129.823 250.405 128.722 251.935 128.722 253.823C128.722 255.711 129.823 257.242 131.182 257.242Z" fill="#A7C7CE" fill-opacity="0.6"/>
<path d="M156.928 257.242C158.287 257.242 159.388 255.711 159.388 253.823C159.388 251.935 158.287 250.405 156.928 250.405C155.569 250.405 154.468 251.935 154.468 253.823C154.468 255.711 155.569 257.242 156.928 257.242Z" fill="#A7C7CE" fill-opacity="0.6"/>
<path d="M182.672 257.242C184.031 257.242 185.132 255.711 185.132 253.823C185.132 251.935 184.031 250.405 182.672 250.405C181.313 250.405 180.212 251.935 180.212 253.823C180.212 255.711 181.313 257.242 182.672 257.242Z" fill="#A7C7CE" fill-opacity="0.6"/>
<path d="M208.416 257.242C209.775 257.242 210.876 255.711 210.876 253.823C210.876 251.935 209.775 250.405 208.416 250.405C207.057 250.405 205.956 251.935 205.956 253.823C205.956 255.711 207.057 257.242 208.416 257.242Z" fill="#A7C7CE" fill-opacity="0.6"/>
<path d="M182.672 78.382C184.031 78.382 185.132 76.8515 185.132 74.9636C185.132 73.0757 184.031 71.5453 182.672 71.5453C181.313 71.5453 180.212 73.0757 180.212 74.9636C180.212 76.8515 181.313 78.382 182.672 78.382Z" fill="#A7C7CE" fill-opacity="0.6"/>
<path d="M208.416 78.382C209.775 78.382 210.876 76.8515 210.876 74.9636C210.876 73.0757 209.775 71.5453 208.416 71.5453C207.057 71.5453 205.956 73.0757 205.956 74.9636C205.956 76.8515 207.057 78.382 208.416 78.382Z" fill="#A7C7CE" fill-opacity="0.6"/>
<path d="M234.162 114.153C235.521 114.153 236.622 112.623 236.622 110.735C236.622 108.847 235.521 107.317 234.162 107.317C232.803 107.317 231.702 108.847 231.702 110.735C231.702 112.623 232.803 114.153 234.162 114.153Z" fill="#A7C7CE" fill-opacity="0.6"/>
<path d="M259.904 114.153C261.263 114.153 262.364 112.623 262.364 110.735C262.364 108.847 261.263 107.317 259.904 107.317C258.546 107.317 257.444 108.847 257.444 110.735C257.444 112.623 258.546 114.153 259.904 114.153Z" fill="#A7C7CE" fill-opacity="0.6"/>
<path d="M285.65 114.153C287.009 114.153 288.11 112.623 288.11 110.735C288.11 108.847 287.009 107.317 285.65 107.317C284.291 107.317 283.19 108.847 283.19 110.735C283.19 112.623 284.291 114.153 285.65 114.153Z" fill="#A7C7CE" fill-opacity="0.6"/>
<path d="M234.162 149.925C235.521 149.925 236.622 148.394 236.622 146.507C236.622 144.619 235.521 143.088 234.162 143.088C232.803 143.088 231.702 144.619 231.702 146.507C231.702 148.394 232.803 149.925 234.162 149.925Z" fill="#A7C7CE" fill-opacity="0.6"/>
<path d="M259.904 149.925C261.263 149.925 262.364 148.394 262.364 146.507C262.364 144.619 261.263 143.088 259.904 143.088C258.546 143.088 257.444 144.619 257.444 146.507C257.444 148.394 258.546 149.925 259.904 149.925Z" fill="#A7C7CE" fill-opacity="0.6"/>
<path d="M285.65 149.925C287.009 149.925 288.11 148.394 288.11 146.507C288.11 144.619 287.009 143.088 285.65 143.088C284.291 143.088 283.19 144.619 283.19 146.507C283.19 148.394 284.291 149.925 285.65 149.925Z" fill="#A7C7CE" fill-opacity="0.6"/>
<path d="M234.162 185.699C235.521 185.699 236.622 184.168 236.622 182.28C236.622 180.393 235.521 178.862 234.162 178.862C232.803 178.862 231.702 180.393 231.702 182.28C231.702 184.168 232.803 185.699 234.162 185.699Z" fill="#A7C7CE" fill-opacity="0.6"/>
<path d="M259.904 185.699C261.263 185.699 262.364 184.168 262.364 182.28C262.364 180.393 261.263 178.862 259.904 178.862C258.546 178.862 257.444 180.393 257.444 182.28C257.444 184.168 258.546 185.699 259.904 185.699Z" fill="#A7C7CE" fill-opacity="0.6"/>
<path d="M285.65 185.699C287.009 185.699 288.11 184.168 288.11 182.28C288.11 180.393 287.009 178.862 285.65 178.862C284.291 178.862 283.19 180.393 283.19 182.28C283.19 184.168 284.291 185.699 285.65 185.699Z" fill="#A7C7CE" fill-opacity="0.6"/>
<path d="M234.162 221.47C235.521 221.47 236.622 219.94 236.622 218.052C236.622 216.164 235.521 214.634 234.162 214.634C232.803 214.634 231.702 216.164 231.702 218.052C231.702 219.94 232.803 221.47 234.162 221.47Z" fill="#A7C7CE" fill-opacity="0.6"/>
<path d="M259.904 221.47C261.263 221.47 262.364 219.94 262.364 218.052C262.364 216.164 261.263 214.634 259.904 214.634C258.546 214.634 257.444 216.164 257.444 218.052C257.444 219.94 258.546 221.47 259.904 221.47Z" fill="#A7C7CE" fill-opacity="0.6"/>
<path d="M285.65 221.47C287.009 221.47 288.11 219.94 288.11 218.052C288.11 216.164 287.009 214.634 285.65 214.634C284.291 214.634 283.19 216.164 283.19 218.052C283.19 219.94 284.291 221.47 285.65 221.47Z" fill="#A7C7CE" fill-opacity="0.6"/>
<path d="M311.394 114.153C312.753 114.153 313.854 112.623 313.854 110.735C313.854 108.847 312.753 107.317 311.394 107.317C310.035 107.317 308.934 108.847 308.934 110.735C308.934 112.623 310.035 114.153 311.394 114.153Z" fill="#A7C7CE" fill-opacity="0.6"/>
<path d="M311.394 149.925C312.753 149.925 313.854 148.394 313.854 146.507C313.854 144.619 312.753 143.088 311.394 143.088C310.035 143.088 308.934 144.619 308.934 146.507C308.934 148.394 310.035 149.925 311.394 149.925Z" fill="#A7C7CE" fill-opacity="0.6"/>
<path d="M311.394 185.699C312.753 185.699 313.854 184.168 313.854 182.28C313.854 180.393 312.753 178.862 311.394 178.862C310.035 178.862 308.934 180.393 308.934 182.28C308.934 184.168 310.035 185.699 311.394 185.699Z" fill="#A7C7CE" fill-opacity="0.6"/>
<path d="M311.394 221.47C312.753 221.47 313.854 219.94 313.854 218.052C313.854 216.164 312.753 214.634 311.394 214.634C310.035 214.634 308.934 216.164 308.934 218.052C308.934 219.94 310.035 221.47 311.394 221.47Z" fill="#A7C7CE" fill-opacity="0.6"/>
<path d="M234.162 257.242C235.521 257.242 236.622 255.711 236.622 253.823C236.622 251.935 235.521 250.405 234.162 250.405C232.803 250.405 231.702 251.935 231.702 253.823C231.702 255.711 232.803 257.242 234.162 257.242Z" fill="#A7C7CE" fill-opacity="0.6"/>
<path d="M259.904 257.242C261.263 257.242 262.364 255.711 262.364 253.823C262.364 251.935 261.263 250.405 259.904 250.405C258.546 250.405 257.444 251.935 257.444 253.823C257.444 255.711 258.546 257.242 259.904 257.242Z" fill="#A7C7CE" fill-opacity="0.6"/>
<path d="M285.65 257.242C287.009 257.242 288.11 255.711 288.11 253.823C288.11 251.935 287.009 250.405 285.65 250.405C284.291 250.405 283.19 251.935 283.19 253.823C283.19 255.711 284.291 257.242 285.65 257.242Z" fill="#A7C7CE" fill-opacity="0.6"/>
<path d="M311.394 257.242C312.753 257.242 313.854 255.711 313.854 253.823C313.854 251.935 312.753 250.405 311.394 250.405C310.035 250.405 308.934 251.935 308.934 253.823C308.934 255.711 310.035 257.242 311.394 257.242Z" fill="#A7C7CE" fill-opacity="0.6"/>
<path d="M234.162 42.6082C235.521 42.6082 236.622 41.0777 236.622 39.1898C236.622 37.3019 235.521 35.7715 234.162 35.7715C232.803 35.7715 231.702 37.3019 231.702 39.1898C231.702 41.0777 232.803 42.6082 234.162 42.6082Z" fill="#A7C7CE" fill-opacity="0.6"/>
<path d="M259.904 42.6082C261.263 42.6082 262.364 41.0777 262.364 39.1898C262.364 37.3019 261.263 35.7715 259.904 35.7715C258.546 35.7715 257.444 37.3019 257.444 39.1898C257.444 41.0777 258.546 42.6082 259.904 42.6082Z" fill="#A7C7CE" fill-opacity="0.6"/>
<path d="M285.65 42.6082C287.009 42.6082 288.11 41.0777 288.11 39.1898C288.11 37.3019 287.009 35.7715 285.65 35.7715C284.291 35.7715 283.19 37.3019 283.19 39.1898C283.19 41.0777 284.291 42.6082 285.65 42.6082Z" fill="#A7C7CE" fill-opacity="0.6"/>
<path d="M234.162 78.382C235.521 78.382 236.622 76.8515 236.622 74.9636C236.622 73.0757 235.521 71.5453 234.162 71.5453C232.803 71.5453 231.702 73.0757 231.702 74.9636C231.702 76.8515 232.803 78.382 234.162 78.382Z" fill="#A7C7CE" fill-opacity="0.6"/>
<path d="M259.904 78.382C261.263 78.382 262.364 76.8515 262.364 74.9636C262.364 73.0757 261.263 71.5453 259.904 71.5453C258.546 71.5453 257.444 73.0757 257.444 74.9636C257.444 76.8515 258.546 78.382 259.904 78.382Z" fill="#A7C7CE" fill-opacity="0.6"/>
<path d="M285.65 78.382C287.009 78.382 288.11 76.8515 288.11 74.9636C288.11 73.0757 287.009 71.5453 285.65 71.5453C284.291 71.5453 283.19 73.0757 283.19 74.9636C283.19 76.8515 284.291 78.382 285.65 78.382Z" fill="#A7C7CE" fill-opacity="0.6"/>
<path d="M311.394 6.83668C312.753 6.83668 313.854 5.30624 313.854 3.41834C313.854 1.53044 312.753 0 311.394 0C310.035 0 308.934 1.53044 308.934 3.41834C308.934 5.30624 310.035 6.83668 311.394 6.83668Z" fill="#A7C7CE" fill-opacity="0.6"/>
<path d="M285.652 6.83668C287.01 6.83668 288.112 5.30624 288.112 3.41834C288.112 1.53044 287.01 0 285.652 0C284.293 0 283.192 1.53044 283.192 3.41834C283.192 5.30624 284.293 6.83668 285.652 6.83668Z" fill="#A7C7CE" fill-opacity="0.6"/>
<path d="M311.394 42.6082C312.753 42.6082 313.854 41.0777 313.854 39.1898C313.854 37.3019 312.753 35.7715 311.394 35.7715C310.035 35.7715 308.934 37.3019 308.934 39.1898C308.934 41.0777 310.035 42.6082 311.394 42.6082Z" fill="#A7C7CE" fill-opacity="0.6"/>
<path d="M311.394 78.382C312.753 78.382 313.854 76.8515 313.854 74.9636C313.854 73.0757 312.753 71.5453 311.394 71.5453C310.035 71.5453 308.934 73.0757 308.934 74.9636C308.934 76.8515 310.035 78.382 311.394 78.382Z" fill="#A7C7CE" fill-opacity="0.6"/>
<path d="M337.138 114.153C338.497 114.153 339.598 112.623 339.598 110.735C339.598 108.847 338.497 107.317 337.138 107.317C335.779 107.317 334.678 108.847 334.678 110.735C334.678 112.623 335.779 114.153 337.138 114.153Z" fill="#A7C7CE" fill-opacity="0.6"/>
<path d="M362.884 114.153C364.243 114.153 365.344 112.623 365.344 110.735C365.344 108.847 364.243 107.317 362.884 107.317C361.525 107.317 360.424 108.847 360.424 110.735C360.424 112.623 361.525 114.153 362.884 114.153Z" fill="#A7C7CE" fill-opacity="0.6"/>
<path d="M388.628 114.153C389.987 114.153 391.088 112.623 391.088 110.735C391.088 108.847 389.987 107.317 388.628 107.317C387.269 107.317 386.168 108.847 386.168 110.735C386.168 112.623 387.269 114.153 388.628 114.153Z" fill="#A7C7CE" fill-opacity="0.6"/>
<path d="M337.138 149.925C338.497 149.925 339.598 148.394 339.598 146.507C339.598 144.619 338.497 143.088 337.138 143.088C335.779 143.088 334.678 144.619 334.678 146.507C334.678 148.394 335.779 149.925 337.138 149.925Z" fill="#A7C7CE" fill-opacity="0.6"/>
<path d="M362.884 149.925C364.243 149.925 365.344 148.394 365.344 146.507C365.344 144.619 364.243 143.088 362.884 143.088C361.525 143.088 360.424 144.619 360.424 146.507C360.424 148.394 361.525 149.925 362.884 149.925Z" fill="#A7C7CE" fill-opacity="0.6"/>
<path d="M388.628 149.925C389.987 149.925 391.088 148.394 391.088 146.507C391.088 144.619 389.987 143.088 388.628 143.088C387.269 143.088 386.168 144.619 386.168 146.507C386.168 148.394 387.269 149.925 388.628 149.925Z" fill="#A7C7CE" fill-opacity="0.6"/>
<path d="M337.138 185.699C338.497 185.699 339.598 184.168 339.598 182.28C339.598 180.393 338.497 178.862 337.138 178.862C335.779 178.862 334.678 180.393 334.678 182.28C334.678 184.168 335.779 185.699 337.138 185.699Z" fill="#A7C7CE" fill-opacity="0.6"/>
<path d="M362.884 185.699C364.243 185.699 365.344 184.168 365.344 182.28C365.344 180.393 364.243 178.862 362.884 178.862C361.525 178.862 360.424 180.393 360.424 182.28C360.424 184.168 361.525 185.699 362.884 185.699Z" fill="#A7C7CE" fill-opacity="0.6"/>
<path d="M388.628 185.699C389.987 185.699 391.088 184.168 391.088 182.28C391.088 180.393 389.987 178.862 388.628 178.862C387.269 178.862 386.168 180.393 386.168 182.28C386.168 184.168 387.269 185.699 388.628 185.699Z" fill="#A7C7CE" fill-opacity="0.6"/>
<path d="M337.138 221.47C338.497 221.47 339.598 219.94 339.598 218.052C339.598 216.164 338.497 214.634 337.138 214.634C335.779 214.634 334.678 216.164 334.678 218.052C334.678 219.94 335.779 221.47 337.138 221.47Z" fill="#A7C7CE" fill-opacity="0.6"/>
<path d="M362.884 221.47C364.243 221.47 365.344 219.94 365.344 218.052C365.344 216.164 364.243 214.634 362.884 214.634C361.525 214.634 360.424 216.164 360.424 218.052C360.424 219.94 361.525 221.47 362.884 221.47Z" fill="#A7C7CE" fill-opacity="0.6"/>
<path d="M388.628 221.47C389.987 221.47 391.088 219.94 391.088 218.052C391.088 216.164 389.987 214.634 388.628 214.634C387.269 214.634 386.168 216.164 386.168 218.052C386.168 219.94 387.269 221.47 388.628 221.47Z" fill="#A7C7CE" fill-opacity="0.6"/>
<path d="M337.138 257.242C338.497 257.242 339.598 255.711 339.598 253.823C339.598 251.935 338.497 250.405 337.138 250.405C335.779 250.405 334.678 251.935 334.678 253.823C334.678 255.711 335.779 257.242 337.138 257.242Z" fill="#A7C7CE" fill-opacity="0.6"/>
<path d="M362.884 257.242C364.243 257.242 365.344 255.711 365.344 253.823C365.344 251.935 364.243 250.405 362.884 250.405C361.525 250.405 360.424 251.935 360.424 253.823C360.424 255.711 361.525 257.242 362.884 257.242Z" fill="#A7C7CE" fill-opacity="0.6"/>
<path d="M388.628 257.242C389.987 257.242 391.088 255.711 391.088 253.823C391.088 251.935 389.987 250.405 388.628 250.405C387.269 250.405 386.168 251.935 386.168 253.823C386.168 255.711 387.269 257.242 388.628 257.242Z" fill="#A7C7CE" fill-opacity="0.6"/>
<path d="M337.138 6.83668C338.497 6.83668 339.598 5.30624 339.598 3.41834C339.598 1.53044 338.497 0 337.138 0C335.779 0 334.678 1.53044 334.678 3.41834C334.678 5.30624 335.779 6.83668 337.138 6.83668Z" fill="#A7C7CE" fill-opacity="0.6"/>
<path d="M362.884 6.83668C364.243 6.83668 365.344 5.30624 365.344 3.41834C365.344 1.53044 364.243 0 362.884 0C361.525 0 360.424 1.53044 360.424 3.41834C360.424 5.30624 361.525 6.83668 362.884 6.83668Z" fill="#A7C7CE" fill-opacity="0.6"/>
<path d="M388.628 6.83668C389.987 6.83668 391.088 5.30624 391.088 3.41834C391.088 1.53044 389.987 0 388.628 0C387.269 0 386.168 1.53044 386.168 3.41834C386.168 5.30624 387.269 6.83668 388.628 6.83668Z" fill="#A7C7CE" fill-opacity="0.6"/>
<path d="M337.138 42.6082C338.497 42.6082 339.598 41.0777 339.598 39.1898C339.598 37.3019 338.497 35.7715 337.138 35.7715C335.779 35.7715 334.678 37.3019 334.678 39.1898C334.678 41.0777 335.779 42.6082 337.138 42.6082Z" fill="#A7C7CE" fill-opacity="0.6"/>
<path d="M362.884 42.6082C364.243 42.6082 365.344 41.0777 365.344 39.1898C365.344 37.3019 364.243 35.7715 362.884 35.7715C361.525 35.7715 360.424 37.3019 360.424 39.1898C360.424 41.0777 361.525 42.6082 362.884 42.6082Z" fill="#A7C7CE" fill-opacity="0.6"/>
<path d="M388.628 42.6082C389.987 42.6082 391.088 41.0777 391.088 39.1898C391.088 37.3019 389.987 35.7715 388.628 35.7715C387.269 35.7715 386.168 37.3019 386.168 39.1898C386.168 41.0777 387.269 42.6082 388.628 42.6082Z" fill="#A7C7CE" fill-opacity="0.6"/>
<path d="M337.138 78.382C338.497 78.382 339.598 76.8515 339.598 74.9636C339.598 73.0757 338.497 71.5453 337.138 71.5453C335.779 71.5453 334.678 73.0757 334.678 74.9636C334.678 76.8515 335.779 78.382 337.138 78.382Z" fill="#A7C7CE" fill-opacity="0.6"/>
<path d="M362.884 78.382C364.243 78.382 365.344 76.8515 365.344 74.9636C365.344 73.0757 364.243 71.5453 362.884 71.5453C361.525 71.5453 360.424 73.0757 360.424 74.9636C360.424 76.8515 361.525 78.382 362.884 78.382Z" fill="#A7C7CE" fill-opacity="0.6"/>
<path d="M388.628 78.382C389.987 78.382 391.088 76.8515 391.088 74.9636C391.088 73.0757 389.987 71.5453 388.628 71.5453C387.269 71.5453 386.168 73.0757 386.168 74.9636C386.168 76.8515 387.269 78.382 388.628 78.382Z" fill="#A7C7CE" fill-opacity="0.6"/>
<path d="M2.46012 436.102C3.8188 436.102 4.92023 434.571 4.92023 432.683C4.92023 430.795 3.8188 429.265 2.46012 429.265C1.10143 429.265 0 430.795 0 432.683C0 434.571 1.10143 436.102 2.46012 436.102Z" fill="#A7C7CE" fill-opacity="0.6"/>
<path d="M2.46012 471.875C3.8188 471.875 4.92023 470.345 4.92023 468.457C4.92023 466.569 3.8188 465.039 2.46012 465.039C1.10143 465.039 0 466.569 0 468.457C0 470.345 1.10143 471.875 2.46012 471.875Z" fill="#A7C7CE" fill-opacity="0.6"/>
<path d="M2.46012 507.647C3.8188 507.647 4.92023 506.116 4.92023 504.228C4.92023 502.341 3.8188 500.81 2.46012 500.81C1.10143 500.81 0 502.341 0 504.228C0 506.116 1.10143 507.647 2.46012 507.647Z" fill="#A7C7CE" fill-opacity="0.6"/>
<path d="M2.46012 543.418C3.8188 543.418 4.92023 541.888 4.92023 540C4.92023 538.112 3.8188 536.582 2.46012 536.582C1.10143 536.582 0 538.112 0 540C0 541.888 1.10143 543.418 2.46012 543.418Z" fill="#A7C7CE" fill-opacity="0.6"/>
<path d="M28.2042 400.33C29.5629 400.33 30.6643 398.8 30.6643 396.912C30.6643 395.024 29.5629 393.493 28.2042 393.493C26.8455 393.493 25.7441 395.024 25.7441 396.912C25.7441 398.8 26.8455 400.33 28.2042 400.33Z" fill="#A7C7CE" fill-opacity="0.6"/>
<path d="M53.9483 400.33C55.307 400.33 56.4084 398.8 56.4084 396.912C56.4084 395.024 55.307 393.493 53.9483 393.493C52.5896 393.493 51.4882 395.024 51.4882 396.912C51.4882 398.8 52.5896 400.33 53.9483 400.33Z" fill="#A7C7CE" fill-opacity="0.6"/>
<path d="M79.694 400.33C81.0527 400.33 82.1541 398.8 82.1541 396.912C82.1541 395.024 81.0527 393.493 79.694 393.493C78.3353 393.493 77.2339 395.024 77.2339 396.912C77.2339 398.8 78.3353 400.33 79.694 400.33Z" fill="#A7C7CE" fill-opacity="0.6"/>
<path d="M28.2042 436.102C29.5629 436.102 30.6643 434.571 30.6643 432.683C30.6643 430.795 29.5629 429.265 28.2042 429.265C26.8455 429.265 25.7441 430.795 25.7441 432.683C25.7441 434.571 26.8455 436.102 28.2042 436.102Z" fill="#A7C7CE" fill-opacity="0.6"/>
<path d="M53.9483 436.102C55.307 436.102 56.4084 434.571 56.4084 432.683C56.4084 430.795 55.307 429.265 53.9483 429.265C52.5896 429.265 51.4882 430.795 51.4882 432.683C51.4882 434.571 52.5896 436.102 53.9483 436.102Z" fill="#A7C7CE" fill-opacity="0.6"/>
<path d="M79.694 436.102C81.0527 436.102 82.1541 434.571 82.1541 432.683C82.1541 430.795 81.0527 429.265 79.694 429.265C78.3353 429.265 77.2339 430.795 77.2339 432.683C77.2339 434.571 78.3353 436.102 79.694 436.102Z" fill="#A7C7CE" fill-opacity="0.6"/>
<path d="M28.2042 471.875C29.5629 471.875 30.6643 470.345 30.6643 468.457C30.6643 466.569 29.5629 465.039 28.2042 465.039C26.8455 465.039 25.7441 466.569 25.7441 468.457C25.7441 470.345 26.8455 471.875 28.2042 471.875Z" fill="#A7C7CE" fill-opacity="0.6"/>
<path d="M53.9483 471.875C55.307 471.875 56.4084 470.345 56.4084 468.457C56.4084 466.569 55.307 465.039 53.9483 465.039C52.5896 465.039 51.4882 466.569 51.4882 468.457C51.4882 470.345 52.5896 471.875 53.9483 471.875Z" fill="#A7C7CE" fill-opacity="0.6"/>
<path d="M79.694 471.875C81.0527 471.875 82.1541 470.345 82.1541 468.457C82.1541 466.569 81.0527 465.039 79.694 465.039C78.3353 465.039 77.2339 466.569 77.2339 468.457C77.2339 470.345 78.3353 471.875 79.694 471.875Z" fill="#A7C7CE" fill-opacity="0.6"/>
<path d="M28.2042 507.647C29.5629 507.647 30.6643 506.116 30.6643 504.228C30.6643 502.341 29.5629 500.81 28.2042 500.81C26.8455 500.81 25.7441 502.341 25.7441 504.228C25.7441 506.116 26.8455 507.647 28.2042 507.647Z" fill="#A7C7CE" fill-opacity="0.6"/>
<path d="M53.9483 507.647C55.307 507.647 56.4084 506.116 56.4084 504.228C56.4084 502.341 55.307 500.81 53.9483 500.81C52.5896 500.81 51.4882 502.341 51.4882 504.228C51.4882 506.116 52.5896 507.647 53.9483 507.647Z" fill="#A7C7CE" fill-opacity="0.6"/>
<path d="M79.694 507.647C81.0527 507.647 82.1541 506.116 82.1541 504.228C82.1541 502.341 81.0527 500.81 79.694 500.81C78.3353 500.81 77.2339 502.341 77.2339 504.228C77.2339 506.116 78.3353 507.647 79.694 507.647Z" fill="#A7C7CE" fill-opacity="0.6"/>
<path d="M105.438 400.33C106.797 400.33 107.898 398.8 107.898 396.912C107.898 395.024 106.797 393.493 105.438 393.493C104.079 393.493 102.978 395.024 102.978 396.912C102.978 398.8 104.079 400.33 105.438 400.33Z" fill="#A7C7CE" fill-opacity="0.6"/>
<path d="M105.438 436.102C106.797 436.102 107.898 434.571 107.898 432.683C107.898 430.795 106.797 429.265 105.438 429.265C104.079 429.265 102.978 430.795 102.978 432.683C102.978 434.571 104.079 436.102 105.438 436.102Z" fill="#A7C7CE" fill-opacity="0.6"/>
<path d="M105.438 471.875C106.797 471.875 107.898 470.345 107.898 468.457C107.898 466.569 106.797 465.039 105.438 465.039C104.079 465.039 102.978 466.569 102.978 468.457C102.978 470.345 104.079 471.875 105.438 471.875Z" fill="#A7C7CE" fill-opacity="0.6"/>
<path d="M105.438 507.647C106.797 507.647 107.898 506.116 107.898 504.228C107.898 502.341 106.797 500.81 105.438 500.81C104.079 500.81 102.978 502.341 102.978 504.228C102.978 506.116 104.079 507.647 105.438 507.647Z" fill="#A7C7CE" fill-opacity="0.6"/>
<path d="M28.2042 543.418C29.5629 543.418 30.6643 541.888 30.6643 540C30.6643 538.112 29.5629 536.582 28.2042 536.582C26.8455 536.582 25.7441 538.112 25.7441 540C25.7441 541.888 26.8455 543.418 28.2042 543.418Z" fill="#A7C7CE" fill-opacity="0.6"/>
<path d="M53.9483 543.418C55.307 543.418 56.4084 541.888 56.4084 540C56.4084 538.112 55.307 536.582 53.9483 536.582C52.5896 536.582 51.4882 538.112 51.4882 540C51.4882 541.888 52.5896 543.418 53.9483 543.418Z" fill="#A7C7CE" fill-opacity="0.6"/>
<path d="M79.694 543.418C81.0527 543.418 82.1541 541.888 82.1541 540C82.1541 538.112 81.0527 536.582 79.694 536.582C78.3353 536.582 77.2339 538.112 77.2339 540C77.2339 541.888 78.3353 543.418 79.694 543.418Z" fill="#A7C7CE" fill-opacity="0.6"/>
<path d="M105.438 543.418C106.797 543.418 107.898 541.888 107.898 540C107.898 538.112 106.797 536.582 105.438 536.582C104.079 536.582 102.978 538.112 102.978 540C102.978 541.888 104.079 543.418 105.438 543.418Z" fill="#A7C7CE" fill-opacity="0.6"/>
<path d="M53.9483 293.013C55.307 293.013 56.4084 291.483 56.4084 289.595C56.4084 287.707 55.307 286.177 53.9483 286.177C52.5896 286.177 51.4882 287.707 51.4882 289.595C51.4882 291.483 52.5896 293.013 53.9483 293.013Z" fill="#A7C7CE" fill-opacity="0.6"/>
<path d="M79.694 293.013C81.0527 293.013 82.1541 291.483 82.1541 289.595C82.1541 287.707 81.0527 286.177 79.694 286.177C78.3353 286.177 77.2339 287.707 77.2339 289.595C77.2339 291.483 78.3353 293.013 79.694 293.013Z" fill="#A7C7CE" fill-opacity="0.6"/>
<path d="M28.2042 328.787C29.5629 328.787 30.6643 327.257 30.6643 325.369C30.6643 323.481 29.5629 321.95 28.2042 321.95C26.8455 321.95 25.7441 323.481 25.7441 325.369C25.7441 327.257 26.8455 328.787 28.2042 328.787Z" fill="#A7C7CE" fill-opacity="0.6"/>
<path d="M53.9483 328.787C55.307 328.787 56.4084 327.257 56.4084 325.369C56.4084 323.481 55.307 321.95 53.9483 321.95C52.5896 321.95 51.4882 323.481 51.4882 325.369C51.4882 327.257 52.5896 328.787 53.9483 328.787Z" fill="#A7C7CE" fill-opacity="0.6"/>
<path d="M79.694 328.787C81.0527 328.787 82.1541 327.257 82.1541 325.369C82.1541 323.481 81.0527 321.95 79.694 321.95C78.3353 321.95 77.2339 323.481 77.2339 325.369C77.2339 327.257 78.3353 328.787 79.694 328.787Z" fill="#A7C7CE" fill-opacity="0.6"/>
<path d="M28.2042 364.559C29.5629 364.559 30.6643 363.028 30.6643 361.14C30.6643 359.252 29.5629 357.722 28.2042 357.722C26.8455 357.722 25.7441 359.252 25.7441 361.14C25.7441 363.028 26.8455 364.559 28.2042 364.559Z" fill="#A7C7CE" fill-opacity="0.6"/>
<path d="M53.9483 364.559C55.307 364.559 56.4084 363.028 56.4084 361.14C56.4084 359.252 55.307 357.722 53.9483 357.722C52.5896 357.722 51.4882 359.252 51.4882 361.14C51.4882 363.028 52.5896 364.559 53.9483 364.559Z" fill="#A7C7CE" fill-opacity="0.6"/>
<path d="M79.694 364.559C81.0527 364.559 82.1541 363.028 82.1541 361.14C82.1541 359.252 81.0527 357.722 79.694 357.722C78.3353 357.722 77.2339 359.252 77.2339 361.14C77.2339 363.028 78.3353 364.559 79.694 364.559Z" fill="#A7C7CE" fill-opacity="0.6"/>
<path d="M105.438 293.013C106.797 293.013 107.898 291.483 107.898 289.595C107.898 287.707 106.797 286.177 105.438 286.177C104.079 286.177 102.978 287.707 102.978 289.595C102.978 291.483 104.079 293.013 105.438 293.013Z" fill="#A7C7CE" fill-opacity="0.6"/>
<path d="M105.438 328.787C106.797 328.787 107.898 327.257 107.898 325.369C107.898 323.481 106.797 321.95 105.438 321.95C104.079 321.95 102.978 323.481 102.978 325.369C102.978 327.257 104.079 328.787 105.438 328.787Z" fill="#A7C7CE" fill-opacity="0.6"/>
<path d="M105.438 364.559C106.797 364.559 107.898 363.028 107.898 361.14C107.898 359.252 106.797 357.722 105.438 357.722C104.079 357.722 102.978 359.252 102.978 361.14C102.978 363.028 104.079 364.559 105.438 364.559Z" fill="#A7C7CE" fill-opacity="0.6"/>
<path d="M131.182 400.33C132.541 400.33 133.642 398.8 133.642 396.912C133.642 395.024 132.541 393.493 131.182 393.493C129.823 393.493 128.722 395.024 128.722 396.912C128.722 398.8 129.823 400.33 131.182 400.33Z" fill="#A7C7CE" fill-opacity="0.6"/>
<path d="M156.928 400.33C158.287 400.33 159.388 398.8 159.388 396.912C159.388 395.024 158.287 393.493 156.928 393.493C155.569 393.493 154.468 395.024 154.468 396.912C154.468 398.8 155.569 400.33 156.928 400.33Z" fill="#A7C7CE" fill-opacity="0.6"/>
<path d="M182.672 400.33C184.031 400.33 185.132 398.8 185.132 396.912C185.132 395.024 184.031 393.493 182.672 393.493C181.313 393.493 180.212 395.024 180.212 396.912C180.212 398.8 181.313 400.33 182.672 400.33Z" fill="#A7C7CE" fill-opacity="0.6"/>
<path d="M131.182 436.102C132.541 436.102 133.642 434.571 133.642 432.683C133.642 430.795 132.541 429.265 131.182 429.265C129.823 429.265 128.722 430.795 128.722 432.683C128.722 434.571 129.823 436.102 131.182 436.102Z" fill="#A7C7CE" fill-opacity="0.6"/>
<path d="M156.928 436.102C158.287 436.102 159.388 434.571 159.388 432.683C159.388 430.795 158.287 429.265 156.928 429.265C155.569 429.265 154.468 430.795 154.468 432.683C154.468 434.571 155.569 436.102 156.928 436.102Z" fill="#A7C7CE" fill-opacity="0.6"/>
<path d="M182.672 436.102C184.031 436.102 185.132 434.571 185.132 432.683C185.132 430.795 184.031 429.265 182.672 429.265C181.313 429.265 180.212 430.795 180.212 432.683C180.212 434.571 181.313 436.102 182.672 436.102Z" fill="#A7C7CE" fill-opacity="0.6"/>
<path d="M131.182 471.875C132.541 471.875 133.642 470.345 133.642 468.457C133.642 466.569 132.541 465.039 131.182 465.039C129.823 465.039 128.722 466.569 128.722 468.457C128.722 470.345 129.823 471.875 131.182 471.875Z" fill="#A7C7CE" fill-opacity="0.6"/>
<path d="M156.928 471.875C158.287 471.875 159.388 470.345 159.388 468.457C159.388 466.569 158.287 465.039 156.928 465.039C155.569 465.039 154.468 466.569 154.468 468.457C154.468 470.345 155.569 471.875 156.928 471.875Z" fill="#A7C7CE" fill-opacity="0.6"/>
<path d="M182.672 471.875C184.031 471.875 185.132 470.345 185.132 468.457C185.132 466.569 184.031 465.039 182.672 465.039C181.313 465.039 180.212 466.569 180.212 468.457C180.212 470.345 181.313 471.875 182.672 471.875Z" fill="#A7C7CE" fill-opacity="0.6"/>
<path d="M131.182 507.647C132.541 507.647 133.642 506.116 133.642 504.228C133.642 502.341 132.541 500.81 131.182 500.81C129.823 500.81 128.722 502.341 128.722 504.228C128.722 506.116 129.823 507.647 131.182 507.647Z" fill="#A7C7CE" fill-opacity="0.6"/>
<path d="M156.928 507.647C158.287 507.647 159.388 506.116 159.388 504.228C159.388 502.341 158.287 500.81 156.928 500.81C155.569 500.81 154.468 502.341 154.468 504.228C154.468 506.116 155.569 507.647 156.928 507.647Z" fill="#A7C7CE" fill-opacity="0.6"/>
<path d="M182.672 507.647C184.031 507.647 185.132 506.116 185.132 504.228C185.132 502.341 184.031 500.81 182.672 500.81C181.313 500.81 180.212 502.341 180.212 504.228C180.212 506.116 181.313 507.647 182.672 507.647Z" fill="#A7C7CE" fill-opacity="0.6"/>
<path d="M208.416 400.33C209.775 400.33 210.876 398.8 210.876 396.912C210.876 395.024 209.775 393.493 208.416 393.493C207.057 393.493 205.956 395.024 205.956 396.912C205.956 398.8 207.057 400.33 208.416 400.33Z" fill="#A7C7CE" fill-opacity="0.6"/>
<path d="M208.416 436.102C209.775 436.102 210.876 434.571 210.876 432.683C210.876 430.795 209.775 429.265 208.416 429.265C207.057 429.265 205.956 430.795 205.956 432.683C205.956 434.571 207.057 436.102 208.416 436.102Z" fill="#A7C7CE" fill-opacity="0.6"/>
<path d="M208.416 471.875C209.775 471.875 210.876 470.345 210.876 468.457C210.876 466.569 209.775 465.039 208.416 465.039C207.057 465.039 205.956 466.569 205.956 468.457C205.956 470.345 207.057 471.875 208.416 471.875Z" fill="#A7C7CE" fill-opacity="0.6"/>
<path d="M208.416 507.647C209.775 507.647 210.876 506.116 210.876 504.228C210.876 502.341 209.775 500.81 208.416 500.81C207.057 500.81 205.956 502.341 205.956 504.228C205.956 506.116 207.057 507.647 208.416 507.647Z" fill="#A7C7CE" fill-opacity="0.6"/>
<path d="M131.182 543.418C132.541 543.418 133.642 541.888 133.642 540C133.642 538.112 132.541 536.582 131.182 536.582C129.823 536.582 128.722 538.112 128.722 540C128.722 541.888 129.823 543.418 131.182 543.418Z" fill="#A7C7CE" fill-opacity="0.6"/>
<path d="M156.928 543.418C158.287 543.418 159.388 541.888 159.388 540C159.388 538.112 158.287 536.582 156.928 536.582C155.569 536.582 154.468 538.112 154.468 540C154.468 541.888 155.569 543.418 156.928 543.418Z" fill="#A7C7CE" fill-opacity="0.6"/>
<path d="M182.672 543.418C184.031 543.418 185.132 541.888 185.132 540C185.132 538.112 184.031 536.582 182.672 536.582C181.313 536.582 180.212 538.112 180.212 540C180.212 541.888 181.313 543.418 182.672 543.418Z" fill="#A7C7CE" fill-opacity="0.6"/>
<path d="M208.416 543.418C209.775 543.418 210.876 541.888 210.876 540C210.876 538.112 209.775 536.582 208.416 536.582C207.057 536.582 205.956 538.112 205.956 540C205.956 541.888 207.057 543.418 208.416 543.418Z" fill="#A7C7CE" fill-opacity="0.6"/>
<path d="M131.182 293.013C132.541 293.013 133.642 291.483 133.642 289.595C133.642 287.707 132.541 286.177 131.182 286.177C129.823 286.177 128.722 287.707 128.722 289.595C128.722 291.483 129.823 293.013 131.182 293.013Z" fill="#A7C7CE" fill-opacity="0.6"/>
<path d="M156.928 293.013C158.287 293.013 159.388 291.483 159.388 289.595C159.388 287.707 158.287 286.177 156.928 286.177C155.569 286.177 154.468 287.707 154.468 289.595C154.468 291.483 155.569 293.013 156.928 293.013Z" fill="#A7C7CE" fill-opacity="0.6"/>
<path d="M182.672 293.013C184.031 293.013 185.132 291.483 185.132 289.595C185.132 287.707 184.031 286.177 182.672 286.177C181.313 286.177 180.212 287.707 180.212 289.595C180.212 291.483 181.313 293.013 182.672 293.013Z" fill="#A7C7CE" fill-opacity="0.6"/>
<path d="M131.182 328.787C132.541 328.787 133.642 327.257 133.642 325.369C133.642 323.481 132.541 321.95 131.182 321.95C129.823 321.95 128.722 323.481 128.722 325.369C128.722 327.257 129.823 328.787 131.182 328.787Z" fill="#A7C7CE" fill-opacity="0.6"/>
<path d="M156.928 328.787C158.287 328.787 159.388 327.257 159.388 325.369C159.388 323.481 158.287 321.95 156.928 321.95C155.569 321.95 154.468 323.481 154.468 325.369C154.468 327.257 155.569 328.787 156.928 328.787Z" fill="#A7C7CE" fill-opacity="0.6"/>
<path d="M208.414 328.787C209.773 328.787 210.875 327.257 210.875 325.369C210.875 323.481 209.773 321.95 208.414 321.95C207.056 321.95 205.954 323.481 205.954 325.369C205.954 327.257 207.056 328.787 208.414 328.787Z" fill="#A7C7CE" fill-opacity="0.6"/>
<path d="M131.182 364.559C132.541 364.559 133.642 363.028 133.642 361.14C133.642 359.252 132.541 357.722 131.182 357.722C129.823 357.722 128.722 359.252 128.722 361.14C128.722 363.028 129.823 364.559 131.182 364.559Z" fill="#A7C7CE" fill-opacity="0.6"/>
<path d="M156.928 364.559C158.287 364.559 159.388 363.028 159.388 361.14C159.388 359.252 158.287 357.722 156.928 357.722C155.569 357.722 154.468 359.252 154.468 361.14C154.468 363.028 155.569 364.559 156.928 364.559Z" fill="#A7C7CE" fill-opacity="0.6"/>
<path d="M182.672 364.559C184.031 364.559 185.132 363.028 185.132 361.14C185.132 359.252 184.031 357.722 182.672 357.722C181.313 357.722 180.212 359.252 180.212 361.14C180.212 363.028 181.313 364.559 182.672 364.559Z" fill="#A7C7CE" fill-opacity="0.6"/>
<path d="M208.416 293.013C209.775 293.013 210.876 291.483 210.876 289.595C210.876 287.707 209.775 286.177 208.416 286.177C207.057 286.177 205.956 287.707 205.956 289.595C205.956 291.483 207.057 293.013 208.416 293.013Z" fill="#A7C7CE" fill-opacity="0.6"/>
<path d="M182.672 328.787C184.031 328.787 185.132 327.257 185.132 325.369C185.132 323.481 184.031 321.95 182.672 321.95C181.313 321.95 180.212 323.481 180.212 325.369C180.212 327.257 181.313 328.787 182.672 328.787Z" fill="#A7C7CE" fill-opacity="0.6"/>
<path d="M208.416 364.559C209.775 364.559 210.876 363.028 210.876 361.14C210.876 359.252 209.775 357.722 208.416 357.722C207.057 357.722 205.956 359.252 205.956 361.14C205.956 363.028 207.057 364.559 208.416 364.559Z" fill="#A7C7CE" fill-opacity="0.6"/>
<path d="M234.162 400.33C235.521 400.33 236.622 398.8 236.622 396.912C236.622 395.024 235.521 393.493 234.162 393.493C232.803 393.493 231.702 395.024 231.702 396.912C231.702 398.8 232.803 400.33 234.162 400.33Z" fill="#A7C7CE" fill-opacity="0.6"/>
<path d="M259.904 400.33C261.263 400.33 262.364 398.8 262.364 396.912C262.364 395.024 261.263 393.493 259.904 393.493C258.546 393.493 257.444 395.024 257.444 396.912C257.444 398.8 258.546 400.33 259.904 400.33Z" fill="#A7C7CE" fill-opacity="0.6"/>
<path d="M285.65 400.33C287.009 400.33 288.11 398.8 288.11 396.912C288.11 395.024 287.009 393.493 285.65 393.493C284.291 393.493 283.19 395.024 283.19 396.912C283.19 398.8 284.291 400.33 285.65 400.33Z" fill="#A7C7CE" fill-opacity="0.6"/>
<path d="M234.162 436.102C235.521 436.102 236.622 434.571 236.622 432.683C236.622 430.795 235.521 429.265 234.162 429.265C232.803 429.265 231.702 430.795 231.702 432.683C231.702 434.571 232.803 436.102 234.162 436.102Z" fill="#A7C7CE" fill-opacity="0.6"/>
<path d="M259.904 436.102C261.263 436.102 262.364 434.571 262.364 432.683C262.364 430.795 261.263 429.265 259.904 429.265C258.546 429.265 257.444 430.795 257.444 432.683C257.444 434.571 258.546 436.102 259.904 436.102Z" fill="#A7C7CE" fill-opacity="0.6"/>
<path d="M234.162 471.875C235.521 471.875 236.622 470.345 236.622 468.457C236.622 466.569 235.521 465.039 234.162 465.039C232.803 465.039 231.702 466.569 231.702 468.457C231.702 470.345 232.803 471.875 234.162 471.875Z" fill="#A7C7CE" fill-opacity="0.6"/>
<path d="M234.162 507.647C235.521 507.647 236.622 506.116 236.622 504.228C236.622 502.341 235.521 500.81 234.162 500.81C232.803 500.81 231.702 502.341 231.702 504.228C231.702 506.116 232.803 507.647 234.162 507.647Z" fill="#A7C7CE" fill-opacity="0.6"/>
<path d="M234.162 543.418C235.521 543.418 236.622 541.888 236.622 540C236.622 538.112 235.521 536.582 234.162 536.582C232.803 536.582 231.702 538.112 231.702 540C231.702 541.888 232.803 543.418 234.162 543.418Z" fill="#A7C7CE" fill-opacity="0.6"/>
<path d="M234.162 293.013C235.521 293.013 236.622 291.483 236.622 289.595C236.622 287.707 235.521 286.177 234.162 286.177C232.803 286.177 231.702 287.707 231.702 289.595C231.702 291.483 232.803 293.013 234.162 293.013Z" fill="#A7C7CE" fill-opacity="0.6"/>
<path d="M259.904 293.013C261.263 293.013 262.364 291.483 262.364 289.595C262.364 287.707 261.263 286.177 259.904 286.177C258.546 286.177 257.444 287.707 257.444 289.595C257.444 291.483 258.546 293.013 259.904 293.013Z" fill="#A7C7CE" fill-opacity="0.6"/>
<path d="M285.65 293.013C287.009 293.013 288.11 291.483 288.11 289.595C288.11 287.707 287.009 286.177 285.65 286.177C284.291 286.177 283.19 287.707 283.19 289.595C283.19 291.483 284.291 293.013 285.65 293.013Z" fill="#A7C7CE" fill-opacity="0.6"/>
<path d="M234.162 328.787C235.521 328.787 236.622 327.257 236.622 325.369C236.622 323.481 235.521 321.95 234.162 321.95C232.803 321.95 231.702 323.481 231.702 325.369C231.702 327.257 232.803 328.787 234.162 328.787Z" fill="#A7C7CE" fill-opacity="0.6"/>
<path d="M259.904 328.787C261.263 328.787 262.364 327.257 262.364 325.369C262.364 323.481 261.263 321.95 259.904 321.95C258.546 321.95 257.444 323.481 257.444 325.369C257.444 327.257 258.546 328.787 259.904 328.787Z" fill="#A7C7CE" fill-opacity="0.6"/>
<path d="M285.65 328.787C287.009 328.787 288.11 327.257 288.11 325.369C288.11 323.481 287.009 321.95 285.65 321.95C284.291 321.95 283.19 323.481 283.19 325.369C283.19 327.257 284.291 328.787 285.65 328.787Z" fill="#A7C7CE" fill-opacity="0.6"/>
<path d="M234.162 364.559C235.521 364.559 236.622 363.028 236.622 361.14C236.622 359.252 235.521 357.722 234.162 357.722C232.803 357.722 231.702 359.252 231.702 361.14C231.702 363.028 232.803 364.559 234.162 364.559Z" fill="#A7C7CE" fill-opacity="0.6"/>
<path d="M259.904 364.559C261.263 364.559 262.364 363.028 262.364 361.14C262.364 359.252 261.263 357.722 259.904 357.722C258.546 357.722 257.444 359.252 257.444 361.14C257.444 363.028 258.546 364.559 259.904 364.559Z" fill="#A7C7CE" fill-opacity="0.6"/>
<path d="M285.65 364.559C287.009 364.559 288.11 363.028 288.11 361.14C288.11 359.252 287.009 357.722 285.65 357.722C284.291 357.722 283.19 359.252 283.19 361.14C283.19 363.028 284.291 364.559 285.65 364.559Z" fill="#A7C7CE" fill-opacity="0.6"/>
<path d="M311.394 293.013C312.753 293.013 313.854 291.483 313.854 289.595C313.854 287.707 312.753 286.177 311.394 286.177C310.035 286.177 308.934 287.707 308.934 289.595C308.934 291.483 310.035 293.013 311.394 293.013Z" fill="#A7C7CE" fill-opacity="0.6"/>
<path d="M311.394 328.787C312.753 328.787 313.854 327.257 313.854 325.369C313.854 323.481 312.753 321.95 311.394 321.95C310.035 321.95 308.934 323.481 308.934 325.369C308.934 327.257 310.035 328.787 311.394 328.787Z" fill="#A7C7CE" fill-opacity="0.6"/>
<path d="M311.394 364.559C312.753 364.559 313.854 363.028 313.854 361.14C313.854 359.252 312.753 357.722 311.394 357.722C310.035 357.722 308.934 359.252 308.934 361.14C308.934 363.028 310.035 364.559 311.394 364.559Z" fill="#A7C7CE" fill-opacity="0.6"/>
<path d="M337.138 293.013C338.497 293.013 339.598 291.483 339.598 289.595C339.598 287.707 338.497 286.177 337.138 286.177C335.779 286.177 334.678 287.707 334.678 289.595C334.678 291.483 335.779 293.013 337.138 293.013Z" fill="#A7C7CE" fill-opacity="0.6"/>
<path d="M362.884 293.013C364.243 293.013 365.344 291.483 365.344 289.595C365.344 287.707 364.243 286.177 362.884 286.177C361.525 286.177 360.424 287.707 360.424 289.595C360.424 291.483 361.525 293.013 362.884 293.013Z" fill="#A7C7CE" fill-opacity="0.6"/>
<path d="M388.628 293.013C389.987 293.013 391.088 291.483 391.088 289.595C391.088 287.707 389.987 286.177 388.628 286.177C387.269 286.177 386.168 287.707 386.168 289.595C386.168 291.483 387.269 293.013 388.628 293.013Z" fill="#A7C7CE" fill-opacity="0.6"/>
<path d="M337.138 328.787C338.497 328.787 339.598 327.257 339.598 325.369C339.598 323.481 338.497 321.95 337.138 321.95C335.779 321.95 334.678 323.481 334.678 325.369C334.678 327.257 335.779 328.787 337.138 328.787Z" fill="#A7C7CE" fill-opacity="0.6"/>
<path d="M362.884 328.787C364.243 328.787 365.344 327.257 365.344 325.369C365.344 323.481 364.243 321.95 362.884 321.95C361.525 321.95 360.424 323.481 360.424 325.369C360.424 327.257 361.525 328.787 362.884 328.787Z" fill="#A7C7CE" fill-opacity="0.6"/>
<path d="M388.628 328.787C389.987 328.787 391.088 327.257 391.088 325.369C391.088 323.481 389.987 321.95 388.628 321.95C387.269 321.95 386.168 323.481 386.168 325.369C386.168 327.257 387.269 328.787 388.628 328.787Z" fill="#A7C7CE" fill-opacity="0.6"/>
<path d="M2.46012 579.19C3.8188 579.19 4.92023 577.659 4.92023 575.771C4.92023 573.883 3.8188 572.353 2.46012 572.353C1.10143 572.353 0 573.883 0 575.771C0 577.659 1.10143 579.19 2.46012 579.19Z" fill="#A7C7CE" fill-opacity="0.6"/>
<path d="M2.46012 614.961C3.8188 614.961 4.92023 613.431 4.92023 611.543C4.92023 609.655 3.8188 608.125 2.46012 608.125C1.10143 608.125 0 609.655 0 611.543C0 613.431 1.10143 614.961 2.46012 614.961Z" fill="#A7C7CE" fill-opacity="0.6"/>
<path d="M2.46012 650.735C3.8188 650.735 4.92023 649.205 4.92023 647.317C4.92023 645.429 3.8188 643.898 2.46012 643.898C1.10143 643.898 0 645.429 0 647.317C0 649.205 1.10143 650.735 2.46012 650.735Z" fill="#A7C7CE" fill-opacity="0.6"/>
<path d="M28.2042 686.507C29.5629 686.507 30.6643 684.976 30.6643 683.088C30.6643 681.2 29.5629 679.67 28.2042 679.67C26.8455 679.67 25.7441 681.2 25.7441 683.088C25.7441 684.976 26.8455 686.507 28.2042 686.507Z" fill="#A7C7CE" fill-opacity="0.6"/>
<path d="M53.9483 686.507C55.307 686.507 56.4084 684.976 56.4084 683.088C56.4084 681.2 55.307 679.67 53.9483 679.67C52.5896 679.67 51.4882 681.2 51.4882 683.088C51.4882 684.976 52.5896 686.507 53.9483 686.507Z" fill="#A7C7CE" fill-opacity="0.6"/>
<path d="M79.694 686.507C81.0527 686.507 82.1541 684.976 82.1541 683.088C82.1541 681.2 81.0527 679.67 79.694 679.67C78.3353 679.67 77.2339 681.2 77.2339 683.088C77.2339 684.976 78.3353 686.507 79.694 686.507Z" fill="#A7C7CE" fill-opacity="0.6"/>
<path d="M28.2042 722.278C29.5629 722.278 30.6643 720.748 30.6643 718.86C30.6643 716.972 29.5629 715.441 28.2042 715.441C26.8455 715.441 25.7441 716.972 25.7441 718.86C25.7441 720.748 26.8455 722.278 28.2042 722.278Z" fill="#A7C7CE" fill-opacity="0.6"/>
<path d="M53.9483 722.278C55.307 722.278 56.4084 720.748 56.4084 718.86C56.4084 716.972 55.307 715.441 53.9483 715.441C52.5896 715.441 51.4882 716.972 51.4882 718.86C51.4882 720.748 52.5896 722.278 53.9483 722.278Z" fill="#A7C7CE" fill-opacity="0.6"/>
<path d="M79.694 722.278C81.0527 722.278 82.1541 720.748 82.1541 718.86C82.1541 716.972 81.0527 715.441 79.694 715.441C78.3353 715.441 77.2339 716.972 77.2339 718.86C77.2339 720.748 78.3353 722.278 79.694 722.278Z" fill="#A7C7CE" fill-opacity="0.6"/>
<path d="M28.2042 758.05C29.5629 758.05 30.6643 756.519 30.6643 754.631C30.6643 752.743 29.5629 751.213 28.2042 751.213C26.8455 751.213 25.7441 752.743 25.7441 754.631C25.7441 756.519 26.8455 758.05 28.2042 758.05Z" fill="#A7C7CE" fill-opacity="0.6"/>
<path d="M53.9483 758.05C55.307 758.05 56.4084 756.519 56.4084 754.631C56.4084 752.743 55.307 751.213 53.9483 751.213C52.5896 751.213 51.4882 752.743 51.4882 754.631C51.4882 756.519 52.5896 758.05 53.9483 758.05Z" fill="#A7C7CE" fill-opacity="0.6"/>
<path d="M79.694 758.05C81.0527 758.05 82.1541 756.519 82.1541 754.631C82.1541 752.743 81.0527 751.213 79.694 751.213C78.3353 751.213 77.2339 752.743 77.2339 754.631C77.2339 756.519 78.3353 758.05 79.694 758.05Z" fill="#A7C7CE" fill-opacity="0.6"/>
<path d="M53.9483 793.824C55.307 793.824 56.4084 792.293 56.4084 790.405C56.4084 788.517 55.307 786.987 53.9483 786.987C52.5896 786.987 51.4882 788.517 51.4882 790.405C51.4882 792.293 52.5896 793.824 53.9483 793.824Z" fill="#A7C7CE" fill-opacity="0.6"/>
<path d="M79.694 793.824C81.0527 793.824 82.1541 792.293 82.1541 790.405C82.1541 788.517 81.0527 786.987 79.694 786.987C78.3353 786.987 77.2339 788.517 77.2339 790.405C77.2339 792.293 78.3353 793.824 79.694 793.824Z" fill="#A7C7CE" fill-opacity="0.6"/>
<path d="M105.438 686.507C106.797 686.507 107.898 684.976 107.898 683.088C107.898 681.2 106.797 679.67 105.438 679.67C104.079 679.67 102.978 681.2 102.978 683.088C102.978 684.976 104.079 686.507 105.438 686.507Z" fill="#A7C7CE" fill-opacity="0.6"/>
<path d="M105.438 722.278C106.797 722.278 107.898 720.748 107.898 718.86C107.898 716.972 106.797 715.441 105.438 715.441C104.079 715.441 102.978 716.972 102.978 718.86C102.978 720.748 104.079 722.278 105.438 722.278Z" fill="#A7C7CE" fill-opacity="0.6"/>
<path d="M105.438 758.05C106.797 758.05 107.898 756.519 107.898 754.631C107.898 752.743 106.797 751.213 105.438 751.213C104.079 751.213 102.978 752.743 102.978 754.631C102.978 756.519 104.079 758.05 105.438 758.05Z" fill="#A7C7CE" fill-opacity="0.6"/>
<path d="M105.438 793.824C106.797 793.824 107.898 792.293 107.898 790.405C107.898 788.517 106.797 786.987 105.438 786.987C104.079 786.987 102.978 788.517 102.978 790.405C102.978 792.293 104.079 793.824 105.438 793.824Z" fill="#A7C7CE" fill-opacity="0.6"/>
<path d="M53.9483 829.593C55.307 829.593 56.4084 828.062 56.4084 826.174C56.4084 824.286 55.307 822.756 53.9483 822.756C52.5896 822.756 51.4882 824.286 51.4882 826.174C51.4882 828.062 52.5896 829.593 53.9483 829.593Z" fill="#A7C7CE" fill-opacity="0.6"/>
<path d="M79.694 829.593C81.0527 829.593 82.1541 828.062 82.1541 826.174C82.1541 824.286 81.0527 822.756 79.694 822.756C78.3353 822.756 77.2339 824.286 77.2339 826.174C77.2339 828.062 78.3353 829.593 79.694 829.593Z" fill="#A7C7CE" fill-opacity="0.6"/>
<path d="M105.438 829.593C106.797 829.593 107.898 828.062 107.898 826.174C107.898 824.286 106.797 822.756 105.438 822.756C104.079 822.756 102.978 824.286 102.978 826.174C102.978 828.062 104.079 829.593 105.438 829.593Z" fill="#A7C7CE" fill-opacity="0.6"/>
<path d="M28.2042 579.19C29.5629 579.19 30.6643 577.659 30.6643 575.771C30.6643 573.883 29.5629 572.353 28.2042 572.353C26.8455 572.353 25.7441 573.883 25.7441 575.771C25.7441 577.659 26.8455 579.19 28.2042 579.19Z" fill="#A7C7CE" fill-opacity="0.6"/>
<path d="M53.9483 579.19C55.307 579.19 56.4084 577.659 56.4084 575.771C56.4084 573.883 55.307 572.353 53.9483 572.353C52.5896 572.353 51.4882 573.883 51.4882 575.771C51.4882 577.659 52.5896 579.19 53.9483 579.19Z" fill="#A7C7CE" fill-opacity="0.6"/>
<path d="M79.694 579.19C81.0527 579.19 82.1541 577.659 82.1541 575.771C82.1541 573.883 81.0527 572.353 79.694 572.353C78.3353 572.353 77.2339 573.883 77.2339 575.771C77.2339 577.659 78.3353 579.19 79.694 579.19Z" fill="#A7C7CE" fill-opacity="0.6"/>
<path d="M28.2042 614.961C29.5629 614.961 30.6643 613.431 30.6643 611.543C30.6643 609.655 29.5629 608.125 28.2042 608.125C26.8455 608.125 25.7441 609.655 25.7441 611.543C25.7441 613.431 26.8455 614.961 28.2042 614.961Z" fill="#A7C7CE" fill-opacity="0.6"/>
<path d="M53.9483 614.961C55.307 614.961 56.4084 613.431 56.4084 611.543C56.4084 609.655 55.307 608.125 53.9483 608.125C52.5896 608.125 51.4882 609.655 51.4882 611.543C51.4882 613.431 52.5896 614.961 53.9483 614.961Z" fill="#A7C7CE" fill-opacity="0.6"/>
<path d="M79.694 614.961C81.0527 614.961 82.1541 613.431 82.1541 611.543C82.1541 609.655 81.0527 608.125 79.694 608.125C78.3353 608.125 77.2339 609.655 77.2339 611.543C77.2339 613.431 78.3353 614.961 79.694 614.961Z" fill="#A7C7CE" fill-opacity="0.6"/>
<path d="M28.2042 650.735C29.5629 650.735 30.6643 649.205 30.6643 647.317C30.6643 645.429 29.5629 643.898 28.2042 643.898C26.8455 643.898 25.7441 645.429 25.7441 647.317C25.7441 649.205 26.8455 650.735 28.2042 650.735Z" fill="#A7C7CE" fill-opacity="0.6"/>
<path d="M53.9483 650.735C55.307 650.735 56.4084 649.205 56.4084 647.317C56.4084 645.429 55.307 643.898 53.9483 643.898C52.5896 643.898 51.4882 645.429 51.4882 647.317C51.4882 649.205 52.5896 650.735 53.9483 650.735Z" fill="#A7C7CE" fill-opacity="0.6"/>
<path d="M79.694 650.735C81.0527 650.735 82.1541 649.205 82.1541 647.317C82.1541 645.429 81.0527 643.898 79.694 643.898C78.3353 643.898 77.2339 645.429 77.2339 647.317C77.2339 649.205 78.3353 650.735 79.694 650.735Z" fill="#A7C7CE" fill-opacity="0.6"/>
<path d="M105.438 579.19C106.797 579.19 107.898 577.659 107.898 575.771C107.898 573.883 106.797 572.353 105.438 572.353C104.079 572.353 102.978 573.883 102.978 575.771C102.978 577.659 104.079 579.19 105.438 579.19Z" fill="#A7C7CE" fill-opacity="0.6"/>
<path d="M105.438 614.961C106.797 614.961 107.898 613.431 107.898 611.543C107.898 609.655 106.797 608.125 105.438 608.125C104.079 608.125 102.978 609.655 102.978 611.543C102.978 613.431 104.079 614.961 105.438 614.961Z" fill="#A7C7CE" fill-opacity="0.6"/>
<path d="M105.438 650.735C106.797 650.735 107.898 649.205 107.898 647.317C107.898 645.429 106.797 643.898 105.438 643.898C104.079 643.898 102.978 645.429 102.978 647.317C102.978 649.205 104.079 650.735 105.438 650.735Z" fill="#A7C7CE" fill-opacity="0.6"/>
<path d="M131.182 686.507C132.541 686.507 133.642 684.976 133.642 683.088C133.642 681.2 132.541 679.67 131.182 679.67C129.823 679.67 128.722 681.2 128.722 683.088C128.722 684.976 129.823 686.507 131.182 686.507Z" fill="#A7C7CE" fill-opacity="0.6"/>
<path d="M156.928 686.507C158.287 686.507 159.388 684.976 159.388 683.088C159.388 681.2 158.287 679.67 156.928 679.67C155.569 679.67 154.468 681.2 154.468 683.088C154.468 684.976 155.569 686.507 156.928 686.507Z" fill="#A7C7CE" fill-opacity="0.6"/>
<path d="M182.672 686.507C184.031 686.507 185.132 684.976 185.132 683.088C185.132 681.2 184.031 679.67 182.672 679.67C181.313 679.67 180.212 681.2 180.212 683.088C180.212 684.976 181.313 686.507 182.672 686.507Z" fill="#A7C7CE" fill-opacity="0.6"/>
<path d="M131.182 722.278C132.541 722.278 133.642 720.748 133.642 718.86C133.642 716.972 132.541 715.441 131.182 715.441C129.823 715.441 128.722 716.972 128.722 718.86C128.722 720.748 129.823 722.278 131.182 722.278Z" fill="#A7C7CE" fill-opacity="0.6"/>
<path d="M156.928 722.278C158.287 722.278 159.388 720.748 159.388 718.86C159.388 716.972 158.287 715.441 156.928 715.441C155.569 715.441 154.468 716.972 154.468 718.86C154.468 720.748 155.569 722.278 156.928 722.278Z" fill="#A7C7CE" fill-opacity="0.6"/>
<path d="M182.672 722.278C184.031 722.278 185.132 720.748 185.132 718.86C185.132 716.972 184.031 715.441 182.672 715.441C181.313 715.441 180.212 716.972 180.212 718.86C180.212 720.748 181.313 722.278 182.672 722.278Z" fill="#A7C7CE" fill-opacity="0.6"/>
<path d="M131.182 758.05C132.541 758.05 133.642 756.519 133.642 754.631C133.642 752.743 132.541 751.213 131.182 751.213C129.823 751.213 128.722 752.743 128.722 754.631C128.722 756.519 129.823 758.05 131.182 758.05Z" fill="#A7C7CE" fill-opacity="0.6"/>
<path d="M156.928 758.05C158.287 758.05 159.388 756.519 159.388 754.631C159.388 752.743 158.287 751.213 156.928 751.213C155.569 751.213 154.468 752.743 154.468 754.631C154.468 756.519 155.569 758.05 156.928 758.05Z" fill="#A7C7CE" fill-opacity="0.6"/>
<path d="M182.672 758.05C184.031 758.05 185.132 756.519 185.132 754.631C185.132 752.743 184.031 751.213 182.672 751.213C181.313 751.213 180.212 752.743 180.212 754.631C180.212 756.519 181.313 758.05 182.672 758.05Z" fill="#A7C7CE" fill-opacity="0.6"/>
<path d="M131.182 793.824C132.541 793.824 133.642 792.293 133.642 790.405C133.642 788.517 132.541 786.987 131.182 786.987C129.823 786.987 128.722 788.517 128.722 790.405C128.722 792.293 129.823 793.824 131.182 793.824Z" fill="#A7C7CE" fill-opacity="0.6"/>
<path d="M156.928 793.824C158.287 793.824 159.388 792.293 159.388 790.405C159.388 788.517 158.287 786.987 156.928 786.987C155.569 786.987 154.468 788.517 154.468 790.405C154.468 792.293 155.569 793.824 156.928 793.824Z" fill="#A7C7CE" fill-opacity="0.6"/>
<path d="M182.672 793.824C184.031 793.824 185.132 792.293 185.132 790.405C185.132 788.517 184.031 786.987 182.672 786.987C181.313 786.987 180.212 788.517 180.212 790.405C180.212 792.293 181.313 793.824 182.672 793.824Z" fill="#A7C7CE" fill-opacity="0.6"/>
<path d="M208.416 686.507C209.775 686.507 210.876 684.976 210.876 683.088C210.876 681.2 209.775 679.67 208.416 679.67C207.057 679.67 205.956 681.2 205.956 683.088C205.956 684.976 207.057 686.507 208.416 686.507Z" fill="#A7C7CE" fill-opacity="0.6"/>
<path d="M208.416 722.278C209.775 722.278 210.876 720.748 210.876 718.86C210.876 716.972 209.775 715.441 208.416 715.441C207.057 715.441 205.956 716.972 205.956 718.86C205.956 720.748 207.057 722.278 208.416 722.278Z" fill="#A7C7CE" fill-opacity="0.6"/>
<path d="M208.416 758.05C209.775 758.05 210.876 756.519 210.876 754.631C210.876 752.743 209.775 751.213 208.416 751.213C207.057 751.213 205.956 752.743 205.956 754.631C205.956 756.519 207.057 758.05 208.416 758.05Z" fill="#A7C7CE" fill-opacity="0.6"/>
<path d="M208.416 793.824C209.775 793.824 210.876 792.293 210.876 790.405C210.876 788.517 209.775 786.987 208.416 786.987C207.057 786.987 205.956 788.517 205.956 790.405C205.956 792.293 207.057 793.824 208.416 793.824Z" fill="#A7C7CE" fill-opacity="0.6"/>
<path d="M131.182 829.593C132.541 829.593 133.642 828.062 133.642 826.174C133.642 824.286 132.541 822.756 131.182 822.756C129.823 822.756 128.722 824.286 128.722 826.174C128.722 828.062 129.823 829.593 131.182 829.593Z" fill="#A7C7CE" fill-opacity="0.6"/>
<path d="M156.928 829.593C158.287 829.593 159.388 828.062 159.388 826.174C159.388 824.286 158.287 822.756 156.928 822.756C155.569 822.756 154.468 824.286 154.468 826.174C154.468 828.062 155.569 829.593 156.928 829.593Z" fill="#A7C7CE" fill-opacity="0.6"/>
<path d="M182.672 829.593C184.031 829.593 185.132 828.062 185.132 826.174C185.132 824.286 184.031 822.756 182.672 822.756C181.313 822.756 180.212 824.286 180.212 826.174C180.212 828.062 181.313 829.593 182.672 829.593Z" fill="#A7C7CE" fill-opacity="0.6"/>
<path d="M208.416 829.593C209.775 829.593 210.876 828.062 210.876 826.174C210.876 824.286 209.775 822.756 208.416 822.756C207.057 822.756 205.956 824.286 205.956 826.174C205.956 828.062 207.057 829.593 208.416 829.593Z" fill="#A7C7CE" fill-opacity="0.6"/>
<path d="M131.182 579.19C132.541 579.19 133.642 577.659 133.642 575.771C133.642 573.883 132.541 572.353 131.182 572.353C129.823 572.353 128.722 573.883 128.722 575.771C128.722 577.659 129.823 579.19 131.182 579.19Z" fill="#A7C7CE" fill-opacity="0.6"/>
<path d="M156.928 579.19C158.287 579.19 159.388 577.659 159.388 575.771C159.388 573.883 158.287 572.353 156.928 572.353C155.569 572.353 154.468 573.883 154.468 575.771C154.468 577.659 155.569 579.19 156.928 579.19Z" fill="#A7C7CE" fill-opacity="0.6"/>
<path d="M182.672 579.19C184.031 579.19 185.132 577.659 185.132 575.771C185.132 573.883 184.031 572.353 182.672 572.353C181.313 572.353 180.212 573.883 180.212 575.771C180.212 577.659 181.313 579.19 182.672 579.19Z" fill="#A7C7CE" fill-opacity="0.6"/>
<path d="M131.182 614.961C132.541 614.961 133.642 613.431 133.642 611.543C133.642 609.655 132.541 608.125 131.182 608.125C129.823 608.125 128.722 609.655 128.722 611.543C128.722 613.431 129.823 614.961 131.182 614.961Z" fill="#A7C7CE" fill-opacity="0.6"/>
<path d="M156.928 614.961C158.287 614.961 159.388 613.431 159.388 611.543C159.388 609.655 158.287 608.125 156.928 608.125C155.569 608.125 154.468 609.655 154.468 611.543C154.468 613.431 155.569 614.961 156.928 614.961Z" fill="#A7C7CE" fill-opacity="0.6"/>
<path d="M182.672 614.961C184.031 614.961 185.132 613.431 185.132 611.543C185.132 609.655 184.031 608.125 182.672 608.125C181.313 608.125 180.212 609.655 180.212 611.543C180.212 613.431 181.313 614.961 182.672 614.961Z" fill="#A7C7CE" fill-opacity="0.6"/>
<path d="M131.182 650.735C132.541 650.735 133.642 649.205 133.642 647.317C133.642 645.429 132.541 643.898 131.182 643.898C129.823 643.898 128.722 645.429 128.722 647.317C128.722 649.205 129.823 650.735 131.182 650.735Z" fill="#A7C7CE" fill-opacity="0.6"/>
<path d="M156.928 650.735C158.287 650.735 159.388 649.205 159.388 647.317C159.388 645.429 158.287 643.898 156.928 643.898C155.569 643.898 154.468 645.429 154.468 647.317C154.468 649.205 155.569 650.735 156.928 650.735Z" fill="#A7C7CE" fill-opacity="0.6"/>
<path d="M182.672 650.735C184.031 650.735 185.132 649.205 185.132 647.317C185.132 645.429 184.031 643.898 182.672 643.898C181.313 643.898 180.212 645.429 180.212 647.317C180.212 649.205 181.313 650.735 182.672 650.735Z" fill="#A7C7CE" fill-opacity="0.6"/>
<path d="M208.416 579.19C209.775 579.19 210.876 577.659 210.876 575.771C210.876 573.883 209.775 572.353 208.416 572.353C207.057 572.353 205.956 573.883 205.956 575.771C205.956 577.659 207.057 579.19 208.416 579.19Z" fill="#A7C7CE" fill-opacity="0.6"/>
<path d="M208.416 614.961C209.775 614.961 210.876 613.431 210.876 611.543C210.876 609.655 209.775 608.125 208.416 608.125C207.057 608.125 205.956 609.655 205.956 611.543C205.956 613.431 207.057 614.961 208.416 614.961Z" fill="#A7C7CE" fill-opacity="0.6"/>
<path d="M208.416 650.735C209.775 650.735 210.876 649.205 210.876 647.317C210.876 645.429 209.775 643.898 208.416 643.898C207.057 643.898 205.956 645.429 205.956 647.317C205.956 649.205 207.057 650.735 208.416 650.735Z" fill="#A7C7CE" fill-opacity="0.6"/>
<path d="M234.162 686.507C235.521 686.507 236.622 684.976 236.622 683.088C236.622 681.2 235.521 679.67 234.162 679.67C232.803 679.67 231.702 681.2 231.702 683.088C231.702 684.976 232.803 686.507 234.162 686.507Z" fill="#A7C7CE" fill-opacity="0.6"/>
<path d="M259.904 686.507C261.263 686.507 262.364 684.976 262.364 683.088C262.364 681.2 261.263 679.67 259.904 679.67C258.546 679.67 257.444 681.2 257.444 683.088C257.444 684.976 258.546 686.507 259.904 686.507Z" fill="#A7C7CE" fill-opacity="0.6"/>
<path d="M285.65 686.507C287.009 686.507 288.11 684.976 288.11 683.088C288.11 681.2 287.009 679.67 285.65 679.67C284.291 679.67 283.19 681.2 283.19 683.088C283.19 684.976 284.291 686.507 285.65 686.507Z" fill="#A7C7CE" fill-opacity="0.6"/>
<path d="M234.162 722.278C235.521 722.278 236.622 720.748 236.622 718.86C236.622 716.972 235.521 715.441 234.162 715.441C232.803 715.441 231.702 716.972 231.702 718.86C231.702 720.748 232.803 722.278 234.162 722.278Z" fill="#A7C7CE" fill-opacity="0.6"/>
<path d="M259.904 722.278C261.263 722.278 262.364 720.748 262.364 718.86C262.364 716.972 261.263 715.441 259.904 715.441C258.546 715.441 257.444 716.972 257.444 718.86C257.444 720.748 258.546 722.278 259.904 722.278Z" fill="#A7C7CE" fill-opacity="0.6"/>
<path d="M285.65 722.278C287.009 722.278 288.11 720.748 288.11 718.86C288.11 716.972 287.009 715.441 285.65 715.441C284.291 715.441 283.19 716.972 283.19 718.86C283.19 720.748 284.291 722.278 285.65 722.278Z" fill="#A7C7CE" fill-opacity="0.6"/>
<path d="M234.162 758.05C235.521 758.05 236.622 756.519 236.622 754.631C236.622 752.743 235.521 751.213 234.162 751.213C232.803 751.213 231.702 752.743 231.702 754.631C231.702 756.519 232.803 758.05 234.162 758.05Z" fill="#A7C7CE" fill-opacity="0.6"/>
<path d="M259.904 758.05C261.263 758.05 262.364 756.519 262.364 754.631C262.364 752.743 261.263 751.213 259.904 751.213C258.546 751.213 257.444 752.743 257.444 754.631C257.444 756.519 258.546 758.05 259.904 758.05Z" fill="#A7C7CE" fill-opacity="0.6"/>
<path d="M285.65 758.05C287.009 758.05 288.11 756.519 288.11 754.631C288.11 752.743 287.009 751.213 285.65 751.213C284.291 751.213 283.19 752.743 283.19 754.631C283.19 756.519 284.291 758.05 285.65 758.05Z" fill="#A7C7CE" fill-opacity="0.6"/>
<path d="M234.162 793.824C235.521 793.824 236.622 792.293 236.622 790.405C236.622 788.517 235.521 786.987 234.162 786.987C232.803 786.987 231.702 788.517 231.702 790.405C231.702 792.293 232.803 793.824 234.162 793.824Z" fill="#A7C7CE" fill-opacity="0.6"/>
<path d="M259.904 793.824C261.263 793.824 262.364 792.293 262.364 790.405C262.364 788.517 261.263 786.987 259.904 786.987C258.546 786.987 257.444 788.517 257.444 790.405C257.444 792.293 258.546 793.824 259.904 793.824Z" fill="#A7C7CE" fill-opacity="0.6"/>
<path d="M285.65 793.824C287.009 793.824 288.11 792.293 288.11 790.405C288.11 788.517 287.009 786.987 285.65 786.987C284.291 786.987 283.19 788.517 283.19 790.405C283.19 792.293 284.291 793.824 285.65 793.824Z" fill="#A7C7CE" fill-opacity="0.6"/>
<path d="M311.394 722.278C312.753 722.278 313.854 720.748 313.854 718.86C313.854 716.972 312.753 715.441 311.394 715.441C310.035 715.441 308.934 716.972 308.934 718.86C308.934 720.748 310.035 722.278 311.394 722.278Z" fill="#A7C7CE" fill-opacity="0.6"/>
<path d="M311.394 758.05C312.753 758.05 313.854 756.519 313.854 754.631C313.854 752.743 312.753 751.213 311.394 751.213C310.035 751.213 308.934 752.743 308.934 754.631C308.934 756.519 310.035 758.05 311.394 758.05Z" fill="#A7C7CE" fill-opacity="0.6"/>
<path d="M311.394 793.824C312.753 793.824 313.854 792.293 313.854 790.405C313.854 788.517 312.753 786.987 311.394 786.987C310.035 786.987 308.934 788.517 308.934 790.405C308.934 792.293 310.035 793.824 311.394 793.824Z" fill="#A7C7CE" fill-opacity="0.6"/>
<path d="M234.162 829.593C235.521 829.593 236.622 828.062 236.622 826.174C236.622 824.286 235.521 822.756 234.162 822.756C232.803 822.756 231.702 824.286 231.702 826.174C231.702 828.062 232.803 829.593 234.162 829.593Z" fill="#A7C7CE" fill-opacity="0.6"/>
<path d="M259.904 829.593C261.263 829.593 262.364 828.062 262.364 826.174C262.364 824.286 261.263 822.756 259.904 822.756C258.546 822.756 257.444 824.286 257.444 826.174C257.444 828.062 258.546 829.593 259.904 829.593Z" fill="#A7C7CE" fill-opacity="0.6"/>
<path d="M285.65 829.593C287.009 829.593 288.11 828.062 288.11 826.174C288.11 824.286 287.009 822.756 285.65 822.756C284.291 822.756 283.19 824.286 283.19 826.174C283.19 828.062 284.291 829.593 285.65 829.593Z" fill="#A7C7CE" fill-opacity="0.6"/>
<path d="M311.394 829.593C312.753 829.593 313.854 828.062 313.854 826.174C313.854 824.286 312.753 822.756 311.394 822.756C310.035 822.756 308.934 824.286 308.934 826.174C308.934 828.062 310.035 829.593 311.394 829.593Z" fill="#A7C7CE" fill-opacity="0.6"/>
<path d="M234.162 579.19C235.521 579.19 236.622 577.659 236.622 575.771C236.622 573.883 235.521 572.353 234.162 572.353C232.803 572.353 231.702 573.883 231.702 575.771C231.702 577.659 232.803 579.19 234.162 579.19Z" fill="#A7C7CE" fill-opacity="0.6"/>
<path d="M234.162 614.961C235.521 614.961 236.622 613.431 236.622 611.543C236.622 609.655 235.521 608.125 234.162 608.125C232.803 608.125 231.702 609.655 231.702 611.543C231.702 613.431 232.803 614.961 234.162 614.961Z" fill="#A7C7CE" fill-opacity="0.6"/>
<path d="M234.162 650.735C235.521 650.735 236.622 649.205 236.622 647.317C236.622 645.429 235.521 643.898 234.162 643.898C232.803 643.898 231.702 645.429 231.702 647.317C231.702 649.205 232.803 650.735 234.162 650.735Z" fill="#A7C7CE" fill-opacity="0.6"/>
<path d="M259.904 650.735C261.263 650.735 262.364 649.205 262.364 647.317C262.364 645.429 261.263 643.898 259.904 643.898C258.546 643.898 257.444 645.429 257.444 647.317C257.444 649.205 258.546 650.735 259.904 650.735Z" fill="#A7C7CE" fill-opacity="0.6"/>
<path d="M337.138 758.05C338.497 758.05 339.598 756.519 339.598 754.631C339.598 752.743 338.497 751.213 337.138 751.213C335.779 751.213 334.678 752.743 334.678 754.631C334.678 756.519 335.779 758.05 337.138 758.05Z" fill="#A7C7CE" fill-opacity="0.6"/>
<path d="M362.884 758.05C364.243 758.05 365.344 756.519 365.344 754.631C365.344 752.743 364.243 751.213 362.884 751.213C361.525 751.213 360.424 752.743 360.424 754.631C360.424 756.519 361.525 758.05 362.884 758.05Z" fill="#A7C7CE" fill-opacity="0.6"/>
<path d="M388.628 758.05C389.987 758.05 391.088 756.519 391.088 754.631C391.088 752.743 389.987 751.213 388.628 751.213C387.269 751.213 386.168 752.743 386.168 754.631C386.168 756.519 387.269 758.05 388.628 758.05Z" fill="#A7C7CE" fill-opacity="0.6"/>
<path d="M337.138 793.824C338.497 793.824 339.598 792.293 339.598 790.405C339.598 788.517 338.497 786.987 337.138 786.987C335.779 786.987 334.678 788.517 334.678 790.405C334.678 792.293 335.779 793.824 337.138 793.824Z" fill="#A7C7CE" fill-opacity="0.6"/>
<path d="M362.884 793.824C364.243 793.824 365.344 792.293 365.344 790.405C365.344 788.517 364.243 786.987 362.884 786.987C361.525 786.987 360.424 788.517 360.424 790.405C360.424 792.293 361.525 793.824 362.884 793.824Z" fill="#A7C7CE" fill-opacity="0.6"/>
<path d="M388.628 793.824C389.987 793.824 391.088 792.293 391.088 790.405C391.088 788.517 389.987 786.987 388.628 786.987C387.269 786.987 386.168 788.517 386.168 790.405C386.168 792.293 387.269 793.824 388.628 793.824Z" fill="#A7C7CE" fill-opacity="0.6"/>
<path d="M337.138 829.593C338.497 829.593 339.598 828.062 339.598 826.174C339.598 824.286 338.497 822.756 337.138 822.756C335.779 822.756 334.678 824.286 334.678 826.174C334.678 828.062 335.779 829.593 337.138 829.593Z" fill="#A7C7CE" fill-opacity="0.6"/>
<path d="M362.884 829.593C364.243 829.593 365.344 828.062 365.344 826.174C365.344 824.286 364.243 822.756 362.884 822.756C361.525 822.756 360.424 824.286 360.424 826.174C360.424 828.062 361.525 829.593 362.884 829.593Z" fill="#A7C7CE" fill-opacity="0.6"/>
<path d="M388.628 829.593C389.987 829.593 391.088 828.062 391.088 826.174C391.088 824.286 389.987 822.756 388.628 822.756C387.269 822.756 386.168 824.286 386.168 826.174C386.168 828.062 387.269 829.593 388.628 829.593Z" fill="#A7C7CE" fill-opacity="0.6"/>
<path d="M79.694 865.369C81.0527 865.369 82.1541 863.838 82.1541 861.951C82.1541 860.063 81.0527 858.532 79.694 858.532C78.3353 858.532 77.2339 860.063 77.2339 861.951C77.2339 863.838 78.3353 865.369 79.694 865.369Z" fill="#A7C7CE" fill-opacity="0.6"/>
<path d="M105.438 865.369C106.797 865.369 107.898 863.838 107.898 861.951C107.898 860.063 106.797 858.532 105.438 858.532C104.079 858.532 102.978 860.063 102.978 861.951C102.978 863.838 104.079 865.369 105.438 865.369Z" fill="#A7C7CE" fill-opacity="0.6"/>
<path d="M105.438 901.138C106.797 901.138 107.898 899.607 107.898 897.72C107.898 895.832 106.797 894.301 105.438 894.301C104.079 894.301 102.978 895.832 102.978 897.72C102.978 899.607 104.079 901.138 105.438 901.138Z" fill="#A7C7CE" fill-opacity="0.6"/>
<path d="M156.928 972.683C158.287 972.683 159.388 971.153 159.388 969.265C159.388 967.377 158.287 965.847 156.928 965.847C155.569 965.847 154.468 967.377 154.468 969.265C154.468 971.153 155.569 972.683 156.928 972.683Z" fill="#A7C7CE" fill-opacity="0.6"/>
<path d="M182.672 972.683C184.031 972.683 185.132 971.153 185.132 969.265C185.132 967.377 184.031 965.847 182.672 965.847C181.313 965.847 180.212 967.377 180.212 969.265C180.212 971.153 181.313 972.683 182.672 972.683Z" fill="#A7C7CE" fill-opacity="0.6"/>
<path d="M182.672 1008.45C184.031 1008.45 185.132 1006.92 185.132 1005.04C185.132 1003.15 184.031 1001.62 182.672 1001.62C181.313 1001.62 180.212 1003.15 180.212 1005.04C180.212 1006.92 181.313 1008.45 182.672 1008.45Z" fill="#A7C7CE" fill-opacity="0.6"/>
<path d="M208.416 972.683C209.775 972.683 210.876 971.153 210.876 969.265C210.876 967.377 209.775 965.847 208.416 965.847C207.057 965.847 205.956 967.377 205.956 969.265C205.956 971.153 207.057 972.683 208.416 972.683Z" fill="#A7C7CE" fill-opacity="0.6"/>
<path d="M208.416 1008.45C209.775 1008.45 210.876 1006.92 210.876 1005.04C210.876 1003.15 209.775 1001.62 208.416 1001.62C207.057 1001.62 205.956 1003.15 205.956 1005.04C205.956 1006.92 207.057 1008.45 208.416 1008.45Z" fill="#A7C7CE" fill-opacity="0.6"/>
<path d="M131.182 865.369C132.541 865.369 133.642 863.838 133.642 861.951C133.642 860.063 132.541 858.532 131.182 858.532C129.823 858.532 128.722 860.063 128.722 861.951C128.722 863.838 129.823 865.369 131.182 865.369Z" fill="#A7C7CE" fill-opacity="0.6"/>
<path d="M156.928 865.369C158.287 865.369 159.388 863.838 159.388 861.951C159.388 860.063 158.287 858.532 156.928 858.532C155.569 858.532 154.468 860.063 154.468 861.951C154.468 863.838 155.569 865.369 156.928 865.369Z" fill="#A7C7CE" fill-opacity="0.6"/>
<path d="M182.672 865.369C184.031 865.369 185.132 863.838 185.132 861.951C185.132 860.063 184.031 858.532 182.672 858.532C181.313 858.532 180.212 860.063 180.212 861.951C180.212 863.838 181.313 865.369 182.672 865.369Z" fill="#A7C7CE" fill-opacity="0.6"/>
<path d="M131.182 901.138C132.541 901.138 133.642 899.607 133.642 897.72C133.642 895.832 132.541 894.301 131.182 894.301C129.823 894.301 128.722 895.832 128.722 897.72C128.722 899.607 129.823 901.138 131.182 901.138Z" fill="#A7C7CE" fill-opacity="0.6"/>
<path d="M156.928 901.138C158.287 901.138 159.388 899.607 159.388 897.72C159.388 895.832 158.287 894.301 156.928 894.301C155.569 894.301 154.468 895.832 154.468 897.72C154.468 899.607 155.569 901.138 156.928 901.138Z" fill="#A7C7CE" fill-opacity="0.6"/>
<path d="M182.672 901.138C184.031 901.138 185.132 899.607 185.132 897.72C185.132 895.832 184.031 894.301 182.672 894.301C181.313 894.301 180.212 895.832 180.212 897.72C180.212 899.607 181.313 901.138 182.672 901.138Z" fill="#A7C7CE" fill-opacity="0.6"/>
<path d="M131.182 936.912C132.541 936.912 133.642 935.381 133.642 933.494C133.642 931.606 132.541 930.075 131.182 930.075C129.823 930.075 128.722 931.606 128.722 933.494C128.722 935.381 129.823 936.912 131.182 936.912Z" fill="#A7C7CE" fill-opacity="0.6"/>
<path d="M156.928 936.912C158.287 936.912 159.388 935.381 159.388 933.494C159.388 931.606 158.287 930.075 156.928 930.075C155.569 930.075 154.468 931.606 154.468 933.494C154.468 935.381 155.569 936.912 156.928 936.912Z" fill="#A7C7CE" fill-opacity="0.6"/>
<path d="M182.672 936.912C184.031 936.912 185.132 935.381 185.132 933.494C185.132 931.606 184.031 930.075 182.672 930.075C181.313 930.075 180.212 931.606 180.212 933.494C180.212 935.381 181.313 936.912 182.672 936.912Z" fill="#A7C7CE" fill-opacity="0.6"/>
<path d="M208.416 865.369C209.775 865.369 210.876 863.838 210.876 861.951C210.876 860.063 209.775 858.532 208.416 858.532C207.057 858.532 205.956 860.063 205.956 861.951C205.956 863.838 207.057 865.369 208.416 865.369Z" fill="#A7C7CE" fill-opacity="0.6"/>
<path d="M208.416 901.138C209.775 901.138 210.876 899.607 210.876 897.72C210.876 895.832 209.775 894.301 208.416 894.301C207.057 894.301 205.956 895.832 205.956 897.72C205.956 899.607 207.057 901.138 208.416 901.138Z" fill="#A7C7CE" fill-opacity="0.6"/>
<path d="M208.416 936.912C209.775 936.912 210.876 935.381 210.876 933.494C210.876 931.606 209.775 930.075 208.416 930.075C207.057 930.075 205.956 931.606 205.956 933.494C205.956 935.381 207.057 936.912 208.416 936.912Z" fill="#A7C7CE" fill-opacity="0.6"/>
<path d="M234.162 972.683C235.521 972.683 236.622 971.153 236.622 969.265C236.622 967.377 235.521 965.847 234.162 965.847C232.803 965.847 231.702 967.377 231.702 969.265C231.702 971.153 232.803 972.683 234.162 972.683Z" fill="#A7C7CE" fill-opacity="0.6"/>
<path d="M259.904 972.683C261.263 972.683 262.364 971.153 262.364 969.265C262.364 967.377 261.263 965.847 259.904 965.847C258.546 965.847 257.444 967.377 257.444 969.265C257.444 971.153 258.546 972.683 259.904 972.683Z" fill="#A7C7CE" fill-opacity="0.6"/>
<path d="M285.65 972.683C287.009 972.683 288.11 971.153 288.11 969.265C288.11 967.377 287.009 965.847 285.65 965.847C284.291 965.847 283.19 967.377 283.19 969.265C283.19 971.153 284.291 972.683 285.65 972.683Z" fill="#A7C7CE" fill-opacity="0.6"/>
<path d="M234.162 1008.45C235.521 1008.45 236.622 1006.92 236.622 1005.04C236.622 1003.15 235.521 1001.62 234.162 1001.62C232.803 1001.62 231.702 1003.15 231.702 1005.04C231.702 1006.92 232.803 1008.45 234.162 1008.45Z" fill="#A7C7CE" fill-opacity="0.6"/>
<path d="M259.904 1008.45C261.263 1008.45 262.364 1006.92 262.364 1005.04C262.364 1003.15 261.263 1001.62 259.904 1001.62C258.546 1001.62 257.444 1003.15 257.444 1005.04C257.444 1006.92 258.546 1008.45 259.904 1008.45Z" fill="#A7C7CE" fill-opacity="0.6"/>
<path d="M285.65 1008.45C287.009 1008.45 288.11 1006.92 288.11 1005.04C288.11 1003.15 287.009 1001.62 285.65 1001.62C284.291 1001.62 283.19 1003.15 283.19 1005.04C283.19 1006.92 284.291 1008.45 285.65 1008.45Z" fill="#A7C7CE" fill-opacity="0.6"/>
<path d="M234.162 1044.22C235.521 1044.22 236.622 1042.69 236.622 1040.81C236.622 1038.92 235.521 1037.39 234.162 1037.39C232.803 1037.39 231.702 1038.92 231.702 1040.81C231.702 1042.69 232.803 1044.22 234.162 1044.22Z" fill="#A7C7CE" fill-opacity="0.6"/>
<path d="M259.904 1044.22C261.263 1044.22 262.364 1042.69 262.364 1040.81C262.364 1038.92 261.263 1037.39 259.904 1037.39C258.546 1037.39 257.444 1038.92 257.444 1040.81C257.444 1042.69 258.546 1044.22 259.904 1044.22Z" fill="#A7C7CE" fill-opacity="0.6"/>
<path d="M285.65 1044.22C287.009 1044.22 288.11 1042.69 288.11 1040.81C288.11 1038.92 287.009 1037.39 285.65 1037.39C284.291 1037.39 283.19 1038.92 283.19 1040.81C283.19 1042.69 284.291 1044.22 285.65 1044.22Z" fill="#A7C7CE" fill-opacity="0.6"/>
<path d="M285.65 1080C287.009 1080 288.11 1078.47 288.11 1076.58C288.11 1074.69 287.009 1073.16 285.65 1073.16C284.291 1073.16 283.19 1074.69 283.19 1076.58C283.19 1078.47 284.291 1080 285.65 1080Z" fill="#A7C7CE" fill-opacity="0.6"/>
<path d="M311.394 972.683C312.753 972.683 313.854 971.153 313.854 969.265C313.854 967.377 312.753 965.847 311.394 965.847C310.035 965.847 308.934 967.377 308.934 969.265C308.934 971.153 310.035 972.683 311.394 972.683Z" fill="#A7C7CE" fill-opacity="0.6"/>
<path d="M311.394 1008.45C312.753 1008.45 313.854 1006.92 313.854 1005.04C313.854 1003.15 312.753 1001.62 311.394 1001.62C310.035 1001.62 308.934 1003.15 308.934 1005.04C308.934 1006.92 310.035 1008.45 311.394 1008.45Z" fill="#A7C7CE" fill-opacity="0.6"/>
<path d="M311.394 1044.22C312.753 1044.22 313.854 1042.69 313.854 1040.81C313.854 1038.92 312.753 1037.39 311.394 1037.39C310.035 1037.39 308.934 1038.92 308.934 1040.81C308.934 1042.69 310.035 1044.22 311.394 1044.22Z" fill="#A7C7CE" fill-opacity="0.6"/>
<path d="M311.394 1080C312.753 1080 313.854 1078.47 313.854 1076.58C313.854 1074.69 312.753 1073.16 311.394 1073.16C310.035 1073.16 308.934 1074.69 308.934 1076.58C308.934 1078.47 310.035 1080 311.394 1080Z" fill="#A7C7CE" fill-opacity="0.6"/>
<path d="M234.162 865.369C235.521 865.369 236.622 863.838 236.622 861.951C236.622 860.063 235.521 858.532 234.162 858.532C232.803 858.532 231.702 860.063 231.702 861.951C231.702 863.838 232.803 865.369 234.162 865.369Z" fill="#A7C7CE" fill-opacity="0.6"/>
<path d="M259.904 865.369C261.263 865.369 262.364 863.838 262.364 861.951C262.364 860.063 261.263 858.532 259.904 858.532C258.546 858.532 257.444 860.063 257.444 861.951C257.444 863.838 258.546 865.369 259.904 865.369Z" fill="#A7C7CE" fill-opacity="0.6"/>
<path d="M285.65 865.369C287.009 865.369 288.11 863.838 288.11 861.951C288.11 860.063 287.009 858.532 285.65 858.532C284.291 858.532 283.19 860.063 283.19 861.951C283.19 863.838 284.291 865.369 285.65 865.369Z" fill="#A7C7CE" fill-opacity="0.6"/>
<path d="M234.162 901.138C235.521 901.138 236.622 899.607 236.622 897.72C236.622 895.832 235.521 894.301 234.162 894.301C232.803 894.301 231.702 895.832 231.702 897.72C231.702 899.607 232.803 901.138 234.162 901.138Z" fill="#A7C7CE" fill-opacity="0.6"/>
<path d="M259.904 901.138C261.263 901.138 262.364 899.607 262.364 897.72C262.364 895.832 261.263 894.301 259.904 894.301C258.546 894.301 257.444 895.832 257.444 897.72C257.444 899.607 258.546 901.138 259.904 901.138Z" fill="#A7C7CE" fill-opacity="0.6"/>
<path d="M285.65 901.138C287.009 901.138 288.11 899.607 288.11 897.72C288.11 895.832 287.009 894.301 285.65 894.301C284.291 894.301 283.19 895.832 283.19 897.72C283.19 899.607 284.291 901.138 285.65 901.138Z" fill="#A7C7CE" fill-opacity="0.6"/>
<path d="M234.162 936.912C235.521 936.912 236.622 935.381 236.622 933.494C236.622 931.606 235.521 930.075 234.162 930.075C232.803 930.075 231.702 931.606 231.702 933.494C231.702 935.381 232.803 936.912 234.162 936.912Z" fill="#A7C7CE" fill-opacity="0.6"/>
<path d="M259.904 936.912C261.263 936.912 262.364 935.381 262.364 933.494C262.364 931.606 261.263 930.075 259.904 930.075C258.546 930.075 257.444 931.606 257.444 933.494C257.444 935.381 258.546 936.912 259.904 936.912Z" fill="#A7C7CE" fill-opacity="0.6"/>
<path d="M285.65 936.912C287.009 936.912 288.11 935.381 288.11 933.494C288.11 931.606 287.009 930.075 285.65 930.075C284.291 930.075 283.19 931.606 283.19 933.494C283.19 935.381 284.291 936.912 285.65 936.912Z" fill="#A7C7CE" fill-opacity="0.6"/>
<path d="M311.394 865.369C312.753 865.369 313.854 863.838 313.854 861.951C313.854 860.063 312.753 858.532 311.394 858.532C310.035 858.532 308.934 860.063 308.934 861.951C308.934 863.838 310.035 865.369 311.394 865.369Z" fill="#A7C7CE" fill-opacity="0.6"/>
<path d="M311.394 901.138C312.753 901.138 313.854 899.607 313.854 897.72C313.854 895.832 312.753 894.301 311.394 894.301C310.035 894.301 308.934 895.832 308.934 897.72C308.934 899.607 310.035 901.138 311.394 901.138Z" fill="#A7C7CE" fill-opacity="0.6"/>
<path d="M311.394 936.912C312.753 936.912 313.854 935.381 313.854 933.494C313.854 931.606 312.753 930.075 311.394 930.075C310.035 930.075 308.934 931.606 308.934 933.494C308.934 935.381 310.035 936.912 311.394 936.912Z" fill="#A7C7CE" fill-opacity="0.6"/>
<path d="M337.138 972.683C338.497 972.683 339.598 971.153 339.598 969.265C339.598 967.377 338.497 965.847 337.138 965.847C335.779 965.847 334.678 967.377 334.678 969.265C334.678 971.153 335.779 972.683 337.138 972.683Z" fill="#A7C7CE" fill-opacity="0.6"/>
<path d="M362.884 972.683C364.243 972.683 365.344 971.153 365.344 969.265C365.344 967.377 364.243 965.847 362.884 965.847C361.525 965.847 360.424 967.377 360.424 969.265C360.424 971.153 361.525 972.683 362.884 972.683Z" fill="#A7C7CE" fill-opacity="0.6"/>
<path d="M388.628 972.683C389.987 972.683 391.088 971.153 391.088 969.265C391.088 967.377 389.987 965.847 388.628 965.847C387.269 965.847 386.168 967.377 386.168 969.265C386.168 971.153 387.269 972.683 388.628 972.683Z" fill="#A7C7CE" fill-opacity="0.6"/>
<path d="M337.138 1008.45C338.497 1008.45 339.598 1006.92 339.598 1005.04C339.598 1003.15 338.497 1001.62 337.138 1001.62C335.779 1001.62 334.678 1003.15 334.678 1005.04C334.678 1006.92 335.779 1008.45 337.138 1008.45Z" fill="#A7C7CE" fill-opacity="0.6"/>
<path d="M362.884 1008.45C364.243 1008.45 365.344 1006.92 365.344 1005.04C365.344 1003.15 364.243 1001.62 362.884 1001.62C361.525 1001.62 360.424 1003.15 360.424 1005.04C360.424 1006.92 361.525 1008.45 362.884 1008.45Z" fill="#A7C7CE" fill-opacity="0.6"/>
<path d="M388.628 1008.45C389.987 1008.45 391.088 1006.92 391.088 1005.04C391.088 1003.15 389.987 1001.62 388.628 1001.62C387.269 1001.62 386.168 1003.15 386.168 1005.04C386.168 1006.92 387.269 1008.45 388.628 1008.45Z" fill="#A7C7CE" fill-opacity="0.6"/>
<path d="M337.138 1044.22C338.497 1044.22 339.598 1042.69 339.598 1040.81C339.598 1038.92 338.497 1037.39 337.138 1037.39C335.779 1037.39 334.678 1038.92 334.678 1040.81C334.678 1042.69 335.779 1044.22 337.138 1044.22Z" fill="#A7C7CE" fill-opacity="0.6"/>
<path d="M362.884 1044.22C364.243 1044.22 365.344 1042.69 365.344 1040.81C365.344 1038.92 364.243 1037.39 362.884 1037.39C361.525 1037.39 360.424 1038.92 360.424 1040.81C360.424 1042.69 361.525 1044.22 362.884 1044.22Z" fill="#A7C7CE" fill-opacity="0.6"/>
<path d="M388.628 1044.22C389.987 1044.22 391.088 1042.69 391.088 1040.81C391.088 1038.92 389.987 1037.39 388.628 1037.39C387.269 1037.39 386.168 1038.92 386.168 1040.81C386.168 1042.69 387.269 1044.22 388.628 1044.22Z" fill="#A7C7CE" fill-opacity="0.6"/>
<path d="M337.138 1080C338.497 1080 339.598 1078.47 339.598 1076.58C339.598 1074.69 338.497 1073.16 337.138 1073.16C335.779 1073.16 334.678 1074.69 334.678 1076.58C334.678 1078.47 335.779 1080 337.138 1080Z" fill="#A7C7CE" fill-opacity="0.6"/>
<path d="M362.884 1080C364.243 1080 365.344 1078.47 365.344 1076.58C365.344 1074.69 364.243 1073.16 362.884 1073.16C361.525 1073.16 360.424 1074.69 360.424 1076.58C360.424 1078.47 361.525 1080 362.884 1080Z" fill="#A7C7CE" fill-opacity="0.6"/>
<path d="M388.628 1080C389.987 1080 391.088 1078.47 391.088 1076.58C391.088 1074.69 389.987 1073.16 388.628 1073.16C387.269 1073.16 386.168 1074.69 386.168 1076.58C386.168 1078.47 387.269 1080 388.628 1080Z" fill="#A7C7CE" fill-opacity="0.6"/>
<path d="M337.138 865.369C338.497 865.369 339.598 863.838 339.598 861.951C339.598 860.063 338.497 858.532 337.138 858.532C335.779 858.532 334.678 860.063 334.678 861.951C334.678 863.838 335.779 865.369 337.138 865.369Z" fill="#A7C7CE" fill-opacity="0.6"/>
<path d="M362.884 865.369C364.243 865.369 365.344 863.838 365.344 861.951C365.344 860.063 364.243 858.532 362.884 858.532C361.525 858.532 360.424 860.063 360.424 861.951C360.424 863.838 361.525 865.369 362.884 865.369Z" fill="#A7C7CE" fill-opacity="0.6"/>
<path d="M388.628 865.369C389.987 865.369 391.088 863.838 391.088 861.951C391.088 860.063 389.987 858.532 388.628 858.532C387.269 858.532 386.168 860.063 386.168 861.951C386.168 863.838 387.269 865.369 388.628 865.369Z" fill="#A7C7CE" fill-opacity="0.6"/>
<path d="M337.138 901.138C338.497 901.138 339.598 899.607 339.598 897.72C339.598 895.832 338.497 894.301 337.138 894.301C335.779 894.301 334.678 895.832 334.678 897.72C334.678 899.607 335.779 901.138 337.138 901.138Z" fill="#A7C7CE" fill-opacity="0.6"/>
<path d="M362.884 901.138C364.243 901.138 365.344 899.607 365.344 897.72C365.344 895.832 364.243 894.301 362.884 894.301C361.525 894.301 360.424 895.832 360.424 897.72C360.424 899.607 361.525 901.138 362.884 901.138Z" fill="#A7C7CE" fill-opacity="0.6"/>
<path d="M388.628 901.138C389.987 901.138 391.088 899.607 391.088 897.72C391.088 895.832 389.987 894.301 388.628 894.301C387.269 894.301 386.168 895.832 386.168 897.72C386.168 899.607 387.269 901.138 388.628 901.138Z" fill="#A7C7CE" fill-opacity="0.6"/>
<path d="M337.138 936.912C338.497 936.912 339.598 935.381 339.598 933.494C339.598 931.606 338.497 930.075 337.138 930.075C335.779 930.075 334.678 931.606 334.678 933.494C334.678 935.381 335.779 936.912 337.138 936.912Z" fill="#A7C7CE" fill-opacity="0.6"/>
<path d="M362.884 936.912C364.243 936.912 365.344 935.381 365.344 933.494C365.344 931.606 364.243 930.075 362.884 930.075C361.525 930.075 360.424 931.606 360.424 933.494C360.424 935.381 361.525 936.912 362.884 936.912Z" fill="#A7C7CE" fill-opacity="0.6"/>
<path d="M388.628 936.912C389.987 936.912 391.088 935.381 391.088 933.494C391.088 931.606 389.987 930.075 388.628 930.075C387.269 930.075 386.168 931.606 386.168 933.494C386.168 935.381 387.269 936.912 388.628 936.912Z" fill="#A7C7CE" fill-opacity="0.6"/>
</g>
<defs>
<clipPath id="clip0_18_2">
<rect width="803" height="1080" fill="white"/>
</clipPath>
</defs>
</svg>
