<svg width="151" height="44" viewBox="0 0 151 44" fill="none" xmlns="http://www.w3.org/2000/svg">
<g id="menu__logo" clip-path="url(#clip0_11_26)">
<g id="Group">
<path id="Vector" fill-rule="evenodd" clip-rule="evenodd" d="M70.0817 22.5023C70.0817 24.2101 70.5563 25.7169 71.4264 26.9224C72.3756 28.1279 73.483 28.7306 74.7485 28.7306C76.0932 28.7306 77.2006 28.1279 78.1498 26.9224C79.099 25.7169 79.5736 24.2101 79.5736 22.5023C79.5736 20.7945 79.099 19.2877 78.1498 18.0822C77.2006 16.8767 76.0932 16.274 74.7485 16.274C73.483 16.274 72.3756 16.8767 71.4264 18.0822C70.4772 19.1872 70.0817 20.6941 70.0817 22.5023ZM61.6181 22.5023C61.6181 20.3927 61.9345 18.2831 62.6464 16.3744C63.2792 14.4658 64.3075 12.758 65.5731 11.1507C66.8386 9.64385 68.2624 8.53883 69.8444 7.73517C71.4264 6.93152 73.0875 6.52969 74.8276 6.52969C76.5678 6.52969 78.308 6.93152 79.89 7.73517C81.472 8.53883 82.8957 9.64385 84.1613 11.1507C85.4269 12.6575 86.3761 14.3653 87.0089 16.3744C87.6417 18.2831 87.9581 20.3927 87.9581 22.5023C87.9581 24.7123 87.6417 26.7215 87.0089 28.6301C86.3761 30.5388 85.4269 32.2466 84.1613 33.8539C82.8957 35.3607 81.5511 36.4658 79.89 37.2694C78.308 38.0731 76.5678 38.4749 74.8276 38.4749C73.0875 38.4749 71.4264 38.0731 69.8444 37.2694C68.2624 36.4658 66.8386 35.3607 65.5731 33.8539C64.3075 32.2466 63.3583 30.5388 62.6464 28.6301C61.9345 26.7215 61.6181 24.7123 61.6181 22.5023Z" fill="#FEFFFE"/>
<path id="Vector_2" fill-rule="evenodd" clip-rule="evenodd" d="M88.5118 44V24.411C88.5118 22.1005 88.5909 20.2922 88.7491 19.0868C88.9073 17.8813 89.2237 16.6758 89.6192 15.6712C90.6475 12.9589 92.3085 10.7489 94.3651 9.14155C96.5008 7.53424 98.8738 6.73059 101.484 6.73059C105.281 6.73059 108.366 8.23744 110.897 11.2511C113.349 14.2648 114.614 18.0822 114.614 22.7032C114.614 27.3242 113.349 31.1415 110.897 34.1552C108.445 37.1689 105.281 38.6758 101.484 38.6758C101.009 38.6758 100.377 38.6758 99.8229 38.5753C99.1901 38.4749 98.5574 38.3744 97.9246 38.1735V28.1278C98.7156 28.4292 99.3483 28.6301 99.902 28.7306C100.377 28.831 100.851 28.9315 101.168 28.9315C102.75 28.9315 103.936 28.3288 104.885 27.2237C105.755 26.1187 106.23 24.6119 106.23 22.7032C106.23 20.7945 105.834 19.3881 104.964 18.2831C104.094 17.1781 102.908 16.5753 101.484 16.5753C99.902 16.5753 98.7155 17.1781 97.8455 18.3836C96.9754 19.589 96.5799 21.2968 96.5799 23.5068V44.1005H88.5118V44Z" fill="#FEFFFE"/>
<path id="Vector_3" fill-rule="evenodd" clip-rule="evenodd" d="M133.361 37.9726V23.2055C133.361 20.9954 132.965 19.1872 132.095 18.0822C131.225 16.9772 130.039 16.3744 128.378 16.3744C127.033 16.3744 125.926 16.9772 125.056 18.0822C124.185 19.1872 123.79 20.6941 123.79 22.5023C123.79 24.411 124.265 25.9178 125.135 27.0228C126.005 28.1279 127.27 28.7306 128.773 28.7306C129.169 28.7306 129.564 28.6301 130.118 28.5297C130.592 28.4292 131.304 28.2283 132.095 27.927V37.9726C131.463 38.1735 130.83 38.274 130.197 38.3744C129.564 38.4749 129.01 38.4749 128.536 38.4749C124.739 38.4749 121.575 36.968 119.123 33.9543C116.671 30.9407 115.405 27.1233 115.405 22.5023C115.405 17.8813 116.671 14.0639 119.123 11.0502C121.575 8.03654 124.739 6.52969 128.536 6.52969C131.146 6.52969 133.519 7.33335 135.655 8.94065C137.79 10.548 139.372 12.6575 140.401 15.4703C140.796 16.5754 141.113 17.6804 141.271 18.9863C141.429 20.2922 141.508 22.3014 141.508 25.1142V37.9726H133.361Z" fill="#FEFFFE"/>
<path id="Vector_4" fill-rule="evenodd" clip-rule="evenodd" d="M142.695 38.1735V4.621C142.695 4.52055 142.695 4.52055 142.695 4.42009C142.695 2.00913 144.593 0 146.887 0C149.181 0 151.079 2.00913 151.079 4.42009C151.079 4.621 151.079 4.72146 151.079 4.92237V38.1735H142.695Z" fill="#FEFFFE"/>
<path id="Vector_5" fill-rule="evenodd" clip-rule="evenodd" d="M43.0299 21.0959C43.0299 21.2968 42.9508 21.5982 42.9508 21.7991C42.9508 21.8996 42.9508 22 42.9508 22.1005C42.9508 23.8082 43.4254 25.3151 44.2955 26.5206C45.0865 27.6256 46.1147 28.2283 47.2221 28.3288C48.3295 28.4292 49.3578 28.0274 50.307 27.1233C51.4144 26.1187 52.0472 24.8128 52.3636 23.105C52.3636 22.8037 52.4427 22.5023 52.4427 22.1005H60.7481C60.7481 24.2101 60.4317 26.3196 59.7989 28.2283C59.1661 30.137 58.2169 31.8448 56.9513 33.4521C55.6857 34.9589 54.341 36.0639 52.68 36.8676C51.098 37.6712 49.3578 38.0731 47.6176 38.0731C47.4594 38.0731 47.3803 38.0731 47.2221 38.0731C47.143 38.0731 47.0639 38.0731 46.9848 38.0731H46.9057C46.4311 38.0731 45.8774 37.9726 45.4029 37.8722C43.6627 37.4703 42.0807 36.7671 40.6569 35.6621C39.2331 34.5571 37.9675 33.1507 37.0184 31.4429C35.9901 29.6347 35.2782 27.726 34.9618 25.7169C34.6454 24.1096 34.5663 22.5023 34.7245 20.895C34.8036 19.2877 35.12 17.6804 35.6737 16.1735C36.3065 14.2649 37.3348 12.5571 38.6003 10.9498C39.7077 9.34248 41.1315 8.137 42.7135 7.33335C44.2955 6.5297 45.9565 6.12787 47.6967 6.12787C48.2504 6.12787 48.725 6.12787 49.1996 6.22833C49.2787 6.22833 49.2787 6.22833 49.3578 6.22833H49.4369H49.516C49.516 6.22833 49.516 6.22833 49.5951 6.22833C49.7533 6.22833 49.8324 6.22833 49.9906 6.32878C51.7308 6.73061 53.3128 7.4338 54.8156 8.53883C56.2394 9.64385 57.4259 10.9498 58.3751 12.5571C58.8497 13.4612 59.0079 14.6667 58.8497 15.7717C58.4542 18.2831 56.4767 19.9909 54.341 19.79L53.3918 19.5891C52.7591 19.3881 52.2054 18.9863 51.7308 18.484C51.7308 18.484 51.7308 18.484 51.6517 18.3836C51.6517 18.3836 51.6517 18.2831 51.5726 18.2831C51.4935 18.0822 51.4144 17.9818 51.2562 17.7808C51.1771 17.6804 51.098 17.6804 51.0189 17.5799C51.0189 17.5799 51.0189 17.5799 50.9398 17.4795C50.1488 16.3744 49.1996 15.7717 48.0922 15.6712C46.9848 15.5708 45.9565 15.9726 44.9283 16.8767C43.9791 18.0822 43.2672 19.3881 43.0299 21.0959Z" fill="#FEFFFE"/>
<path id="Vector_6" fill-rule="evenodd" clip-rule="evenodd" d="M3.79675 5.72601H22.1477C24.2043 5.72601 25.9445 7.93606 25.9445 10.6484V33.5525C25.9445 36.2648 24.2043 38.4749 22.1477 38.4749H3.79675C1.74018 38.4749 0 36.2648 0 33.5525V10.6484C0 7.93606 1.74018 5.72601 3.79675 5.72601Z" fill="#FEFFFE"/>
<path id="Vector_7" fill-rule="evenodd" clip-rule="evenodd" d="M9.4919 7.6347C12.0231 7.6347 14.5542 7.73516 17.1645 7.73516C17.4018 8.03653 17.7973 8.13699 18.0346 8.53881C18.1928 8.84018 18.5883 9.14155 18.5883 9.54338C18.7465 18.7854 18.5883 27.726 18.5092 36.7671C18.5092 37.0685 18.351 37.3699 18.2719 37.4703C18.1928 37.5708 18.0346 37.6712 17.9555 37.6712L8.9382 37.7717C8.62181 37.5708 8.30541 37.4703 8.06811 37.2694L7.11893 36.4658L6.24884 35.2603L5.77424 34.1553C5.61604 33.653 5.29965 33.1507 5.29965 32.6484C5.22055 31.5434 5.14145 30.3379 5.29965 29.2329L5.53695 27.9269L6.01154 26.621C6.09064 26.1187 6.32794 25.8174 6.48613 25.4155C6.64433 24.9132 6.88163 24.5114 7.11893 24.1096L7.98902 22.6027C8.30541 22.2009 8.54271 21.7991 8.8591 21.3973L9.4919 20.3927L10.2829 19.0868L10.8366 17.7808L11.3903 16.4749L11.7067 15.169L11.7858 14.2648C11.8649 13.3607 12.1022 12.2557 11.8649 11.4521C11.7858 11.2511 11.7858 10.9498 11.7067 10.7489C11.6276 10.5479 11.4694 10.347 11.3903 10.0457C11.2321 9.64384 10.9948 9.14155 10.7575 8.84018L9.4919 7.6347Z" fill="#26354A"/>
<path id="Vector_8" fill-rule="evenodd" clip-rule="evenodd" d="M11.2321 8.53882L16.6899 8.63928C16.9272 8.84019 17.2436 8.84019 17.4018 9.14156C17.56 9.44293 17.7973 9.7443 17.7973 10.1461C17.7973 10.7489 17.7973 11.3516 17.7973 11.9543C17.7973 12.2557 17.7973 12.5571 17.7973 12.8585C17.7973 13.1598 17.7182 13.4612 17.7182 13.7626C17.7182 13.863 17.7182 13.9635 17.6391 14.0639C17.56 14.1644 17.4809 14.2648 17.4809 14.3653C17.3227 14.5662 17.2436 14.7671 17.0854 14.8676C16.8481 15.2694 16.5317 15.5708 16.2944 15.9726C15.7407 16.6758 15.2661 17.379 14.7124 18.0822C13.6841 19.4886 12.5768 20.895 11.5485 22.3014C11.3903 22.5023 11.2321 22.5023 11.0739 22.5023L10.5202 22.6027C10.2829 22.6027 10.1247 22.6027 9.88739 22.5023C9.72919 22.4018 9.57099 22.3014 9.49189 22.1005C9.4128 21.7991 9.57099 21.5982 9.65009 21.2968C10.362 19.6895 11.2321 18.1827 11.8649 16.7763C12.0231 16.4749 12.1022 16.0731 12.1813 15.7717C12.2604 15.4703 12.3395 14.968 12.4186 14.5662C12.4977 14.0639 12.5768 13.7626 12.5768 13.1598C12.5768 12.5571 12.6559 11.8539 12.4977 11.2511C12.4186 10.9498 12.4186 10.7489 12.3395 10.4475C12.2604 10.1461 12.1813 9.84475 12.0231 9.64384L11.6276 8.94064L11.2321 8.53882Z" fill="#FEFFFE"/>
<path id="Vector_9" fill-rule="evenodd" clip-rule="evenodd" d="M17.7973 15.9726C15.978 18.3836 14.1587 20.6941 12.3395 23.0046C12.2604 23.105 12.1813 23.3059 12.1022 23.4064L11.944 24.0091C11.944 24.21 11.8649 24.411 11.944 24.6119C11.944 24.7123 11.944 24.8128 12.0231 24.9132C12.0231 25.0137 12.1813 25.3151 12.2604 25.4155C12.4186 25.516 12.4186 25.6164 12.6559 25.8173C12.8932 26.0183 13.1305 26.2192 13.3678 26.4201C13.3678 29.7352 13.4468 33.0502 13.4468 36.2648C13.5259 36.3653 13.5259 36.5662 13.605 36.6667C13.6841 36.7671 13.7632 36.8676 13.9214 36.968H15.6616H17.4018C17.56 36.8676 17.7182 36.8676 17.7973 36.6667L17.9555 36.2648V15.9726H17.7973Z" fill="#FEFFFE"/>
<path id="Vector_10" fill-rule="evenodd" clip-rule="evenodd" d="M13.0513 9.34247C13.2095 9.34247 13.3677 9.54338 13.3677 9.74429C13.3677 9.94521 13.2095 10.1461 13.0513 10.1461C12.8931 10.1461 12.7349 9.94521 12.7349 9.74429C12.7349 9.54338 12.814 9.34247 13.0513 9.34247Z" fill="#26354A"/>
</g>
</g>
<defs>
<clipPath id="clip0_11_26">
<rect width="151" height="44" fill="white"/>
</clipPath>
</defs>
</svg>
