<svg width="16" height="16" viewBox="0 0 16 16" fill="none" xmlns="http://www.w3.org/2000/svg">
<g clip-path="url(#clip0_231_5587)">
<path d="M9.42692 0C5.86452 0 2.9769 2.88762 2.9769 6.45001C2.9769 7.98313 3.51473 9.39023 4.40781 10.4976L0.144851 14.7606C-0.123072 15.0285 -0.123072 15.4642 0.144851 15.7321C0.412775 16 0.848399 16 1.11632 15.7321L5.37928 11.4691C6.4867 12.3622 7.8938 12.9 9.42692 12.9C12.9893 12.9 15.8769 10.0124 15.8769 6.45001C15.8769 2.88762 12.9893 0 9.42692 0ZM9.42692 11.9077C6.41724 11.9077 3.96921 9.45969 3.96921 6.45001C3.96921 3.44034 6.41724 0.99231 9.42692 0.99231C12.4366 0.99231 14.8846 3.44034 14.8846 6.45001C14.8846 9.45969 12.4366 11.9077 9.42692 11.9077Z" fill="#26354A"/>
</g>
<defs>
<clipPath id="clip0_231_5587">
<rect width="16" height="16" fill="white"/>
</clipPath>
</defs>
</svg>
